<svg width="34" height="25" viewBox="0 0 34 25" fill="none" xmlns="http://www.w3.org/2000/svg">
<path d="M28.1777 0C28.6856 1.21226e-05 29.1731 0.201431 29.5322 0.560547C29.8913 0.919668 30.0928 1.40718 30.0928 1.91504V12.2793C29.5907 12.1809 29.0719 12.1279 28.541 12.1279C28.511 12.1279 28.4811 12.1296 28.4512 12.1299V1.91504C28.4512 1.84251 28.4224 1.77298 28.3711 1.72168C28.3198 1.67039 28.2503 1.64161 28.1777 1.6416H6.29199C6.21948 1.64163 6.14991 1.6704 6.09863 1.72168C6.04738 1.77297 6.01855 1.84253 6.01855 1.91504V18.3291C6.01913 18.8048 5.90568 19.2741 5.68848 19.6973H20.5303C20.5218 19.8479 20.5166 19.9996 20.5166 20.1523C20.5166 20.5551 20.5472 20.9511 20.6045 21.3379H3.00879C2.21298 21.3378 1.44962 21.0225 0.885742 20.4609C0.321945 19.8994 0.00338423 19.1375 0 18.3418V5.19824C0 4.98058 0.0863215 4.7711 0.240234 4.61719C0.394048 4.46341 0.602818 4.37706 0.820312 4.37695C1.03798 4.37695 1.24745 4.46328 1.40137 4.61719C1.55526 4.7711 1.6416 4.98059 1.6416 5.19824V18.3291C1.64163 18.6917 1.78561 19.0394 2.04199 19.2959C2.2984 19.5523 2.64619 19.6971 3.00879 19.6973C3.37157 19.6973 3.72004 19.5524 3.97656 19.2959C4.23294 19.0394 4.37693 18.6917 4.37695 18.3291V1.91504C4.37695 1.40716 4.57935 0.919673 4.93848 0.560547C5.29754 0.201699 5.78434 2.9915e-05 6.29199 0H28.1777ZM22.7061 12.0371C22.9237 12.0371 23.1332 12.1234 23.2871 12.2773C23.4408 12.4312 23.5273 12.64 23.5273 12.8574C23.5273 13.0749 23.4407 13.2836 23.2871 13.4375C23.1332 13.5914 22.9237 13.6787 22.7061 13.6787H11.7637C11.546 13.6787 11.3375 13.5914 11.1836 13.4375C11.0297 13.2836 10.9424 13.0751 10.9424 12.8574C10.9424 12.6398 11.0297 12.4312 11.1836 12.2773C11.3375 12.1236 11.5461 12.0371 11.7637 12.0371H22.7061ZM22.7061 7.66016C22.9237 7.66016 23.1332 7.74648 23.2871 7.90039C23.4408 8.05425 23.5273 8.26299 23.5273 8.48047C23.5273 8.69793 23.4408 8.90668 23.2871 9.06055C23.1332 9.21446 22.9237 9.30176 22.7061 9.30176H11.7637C11.546 9.30176 11.3375 9.21444 11.1836 9.06055C11.0297 8.90664 10.9424 8.69813 10.9424 8.48047C10.9424 8.26285 11.0297 8.05428 11.1836 7.90039C11.3375 7.74657 11.5461 7.66016 11.7637 7.66016H22.7061Z" fill="white"/>
<path d="M28.1038 13.4478C26.9375 13.4478 25.7974 13.7865 24.8277 14.4212C23.858 15.0559 23.1022 15.958 22.6559 17.0134C22.2096 18.0689 22.0928 19.2303 22.3203 20.3507C22.5479 21.4712 23.1095 22.5004 23.9342 23.3082C24.7588 24.116 25.8095 24.6661 26.9534 24.889C28.0973 25.1119 29.2829 24.9975 30.3604 24.5603C31.4379 24.1231 32.3588 23.3828 33.0068 22.4329C33.6547 21.483 34.0006 20.3663 34.0006 19.2239C33.9989 17.6924 33.3771 16.2242 32.2716 15.1413C31.1661 14.0584 29.6672 13.4494 28.1038 13.4478ZM31.279 19.6682H28.1038C27.9835 19.6682 27.8681 19.6214 27.7831 19.538C27.698 19.4547 27.6502 19.3417 27.6502 19.2239V16.1137C27.6502 15.9958 27.698 15.8828 27.7831 15.7995C27.8681 15.7161 27.9835 15.6693 28.1038 15.6693C28.2241 15.6693 28.3395 15.7161 28.4245 15.7995C28.5096 15.8828 28.5574 15.9958 28.5574 16.1137V18.7796H31.279C31.3993 18.7796 31.5146 18.8264 31.5997 18.9097C31.6848 18.993 31.7326 19.106 31.7326 19.2239C31.7326 19.3417 31.6848 19.4547 31.5997 19.538C31.5146 19.6214 31.3993 19.6682 31.279 19.6682Z" fill="white"/>
</svg>
