<svg width="34" height="34" viewBox="0 0 34 34" fill="none" xmlns="http://www.w3.org/2000/svg">
<g filter="url(#filter0_d_2101_6419)">
<mask id="path-1-inside-1_2101_6419" fill="white">
<path d="M25.3992 14.3995C25.3564 14.3025 25.2886 14.2164 25.2015 14.1488C25.1145 14.0811 25.0108 14.0338 24.8995 14.0109C24.7881 13.988 24.6723 13.9902 24.5621 14.0173C24.4518 14.0444 24.3504 14.0956 24.2665 14.1666L19.4358 18.2528L17.1409 17.801L16.6481 15.6976L21.106 11.2696C21.1834 11.1927 21.2393 11.0997 21.2688 10.9987C21.2984 10.8976 21.3008 10.7915 21.2759 10.6894C21.2509 10.5873 21.1993 10.4923 21.1254 10.4125C21.0516 10.3327 20.9577 10.2706 20.8519 10.2313C19.32 9.66207 17.6366 9.52869 16.0208 9.8485C14.405 10.1683 12.9317 10.9265 11.7925 12.0245C10.6533 13.1224 9.90104 14.5092 9.63359 16.0045C9.36614 17.4997 9.59589 19.0341 10.2929 20.408L3.07209 26.1222C3.05915 26.1319 3.04738 26.1427 3.03445 26.1546C2.7066 26.455 2.4465 26.8116 2.26901 27.2041C2.09152 27.5966 2.00011 28.0173 2 28.4422C1.99978 29.3003 2.37146 30.1234 3.03327 30.7303C3.69508 31.3372 4.59281 31.6783 5.52898 31.6785C6.46514 31.6787 7.36305 31.338 8.02518 30.7313C8.03811 30.7195 8.04988 30.7087 8.06046 30.6968L14.2945 24.0781C15.7933 24.717 17.4673 24.9276 19.0986 24.6824C20.7298 24.4373 22.2428 23.7477 23.4406 22.7035C24.6384 21.6593 25.4656 20.3088 25.8145 18.8278C26.1634 17.3467 26.0179 15.8037 25.3969 14.3995H25.3992ZM17.7643 23.4829C16.6124 23.4825 15.4794 23.2147 14.4709 22.7045C14.3291 22.6325 14.1646 22.6075 14.005 22.6336C13.8454 22.6597 13.7005 22.7354 13.5946 22.8479L10.3024 26.3395L7.01009 29.8311C6.6103 30.1822 6.07637 30.3757 5.52274 30.3703C4.96911 30.3649 4.43983 30.1609 4.04833 29.802C3.65683 29.4431 3.43427 28.958 3.42833 28.4505C3.4224 27.9431 3.63358 27.4536 4.01659 27.0872L11.6338 21.056C11.7575 20.9586 11.8406 20.8249 11.8689 20.6776C11.8972 20.5304 11.869 20.3788 11.7891 20.2484C11.1504 19.1894 10.8606 17.9832 10.9549 16.7762C11.0493 15.5691 11.5237 14.4131 12.3206 13.4483C13.1175 12.4835 14.2027 11.7514 15.4446 11.3407C16.6864 10.9301 18.0316 10.8586 19.317 11.1348L15.3625 15.0658C15.2859 15.142 15.2304 15.234 15.2008 15.334C15.1711 15.434 15.1681 15.5391 15.1919 15.6404L15.8565 18.4814C15.885 18.6033 15.9513 18.7151 16.0475 18.8033C16.1437 18.8914 16.2657 18.9523 16.3987 18.9784L19.4981 19.5875C19.6086 19.6094 19.7232 19.6066 19.8323 19.5794C19.9415 19.5522 20.0418 19.5014 20.125 19.4312L24.4088 15.8064C24.6414 16.7239 24.6451 17.6776 24.4196 18.5966C24.1942 19.5155 23.7454 20.376 23.1067 21.1138C22.4681 21.8517 21.656 22.4479 20.731 22.8581C19.806 23.2683 18.7919 23.4819 17.7643 23.4829Z"/>
</mask>
<path d="M25.3992 14.3995C25.3564 14.3025 25.2886 14.2164 25.2015 14.1488C25.1145 14.0811 25.0108 14.0338 24.8995 14.0109C24.7881 13.988 24.6723 13.9902 24.5621 14.0173C24.4518 14.0444 24.3504 14.0956 24.2665 14.1666L19.4358 18.2528L17.1409 17.801L16.6481 15.6976L21.106 11.2696C21.1834 11.1927 21.2393 11.0997 21.2688 10.9987C21.2984 10.8976 21.3008 10.7915 21.2759 10.6894C21.2509 10.5873 21.1993 10.4923 21.1254 10.4125C21.0516 10.3327 20.9577 10.2706 20.8519 10.2313C19.32 9.66207 17.6366 9.52869 16.0208 9.8485C14.405 10.1683 12.9317 10.9265 11.7925 12.0245C10.6533 13.1224 9.90104 14.5092 9.63359 16.0045C9.36614 17.4997 9.59589 19.0341 10.2929 20.408L3.07209 26.1222C3.05915 26.1319 3.04738 26.1427 3.03445 26.1546C2.7066 26.455 2.4465 26.8116 2.26901 27.2041C2.09152 27.5966 2.00011 28.0173 2 28.4422C1.99978 29.3003 2.37146 30.1234 3.03327 30.7303C3.69508 31.3372 4.59281 31.6783 5.52898 31.6785C6.46514 31.6787 7.36305 31.338 8.02518 30.7313C8.03811 30.7195 8.04988 30.7087 8.06046 30.6968L14.2945 24.0781C15.7933 24.717 17.4673 24.9276 19.0986 24.6824C20.7298 24.4373 22.2428 23.7477 23.4406 22.7035C24.6384 21.6593 25.4656 20.3088 25.8145 18.8278C26.1634 17.3467 26.0179 15.8037 25.3969 14.3995H25.3992ZM17.7643 23.4829C16.6124 23.4825 15.4794 23.2147 14.4709 22.7045C14.3291 22.6325 14.1646 22.6075 14.005 22.6336C13.8454 22.6597 13.7005 22.7354 13.5946 22.8479L10.3024 26.3395L7.01009 29.8311C6.6103 30.1822 6.07637 30.3757 5.52274 30.3703C4.96911 30.3649 4.43983 30.1609 4.04833 29.802C3.65683 29.4431 3.43427 28.958 3.42833 28.4505C3.4224 27.9431 3.63358 27.4536 4.01659 27.0872L11.6338 21.056C11.7575 20.9586 11.8406 20.8249 11.8689 20.6776C11.8972 20.5304 11.869 20.3788 11.7891 20.2484C11.1504 19.1894 10.8606 17.9832 10.9549 16.7762C11.0493 15.5691 11.5237 14.4131 12.3206 13.4483C13.1175 12.4835 14.2027 11.7514 15.4446 11.3407C16.6864 10.9301 18.0316 10.8586 19.317 11.1348L15.3625 15.0658C15.2859 15.142 15.2304 15.234 15.2008 15.334C15.1711 15.434 15.1681 15.5391 15.1919 15.6404L15.8565 18.4814C15.885 18.6033 15.9513 18.7151 16.0475 18.8033C16.1437 18.8914 16.2657 18.9523 16.3987 18.9784L19.4981 19.5875C19.6086 19.6094 19.7232 19.6066 19.8323 19.5794C19.9415 19.5522 20.0418 19.5014 20.125 19.4312L24.4088 15.8064C24.6414 16.7239 24.6451 17.6776 24.4196 18.5966C24.1942 19.5155 23.7454 20.376 23.1067 21.1138C22.4681 21.8517 21.656 22.4479 20.731 22.8581C19.806 23.2683 18.7919 23.4819 17.7643 23.4829Z" fill="#C62742"/>
<path d="M25.3992 14.3995V16.8995H29.2354L27.6863 13.3899L25.3992 14.3995ZM24.2665 14.1666L22.6524 12.2575L22.652 12.2578L24.2665 14.1666ZM19.4358 18.2528L18.9529 20.7057L20.1324 20.9379L21.0503 20.1615L19.4358 18.2528ZM17.1409 17.801L14.7068 18.3713L15.0749 19.9423L16.6581 20.254L17.1409 17.801ZM16.6481 15.6976L14.8863 13.9238L13.8954 14.9081L14.214 16.2679L16.6481 15.6976ZM21.106 11.2696L22.8678 13.0433L22.8682 13.0429L21.106 11.2696ZM20.8519 10.2313L19.9811 12.5748L19.9826 12.5753L20.8519 10.2313ZM10.2929 20.408L11.8443 22.3684L13.4473 21.0999L12.5224 19.2769L10.2929 20.408ZM3.07209 26.1222L4.57204 28.1223L4.59801 28.1028L4.62346 28.0827L3.07209 26.1222ZM3.03445 26.1546L4.72328 27.9979L4.72371 27.9975L3.03445 26.1546ZM2 28.4422L-0.5 28.4416L2 28.4422ZM8.02518 30.7313L9.71401 32.5747L9.71444 32.5743L8.02518 30.7313ZM8.06046 30.6968L6.24059 28.9828L6.21766 29.0071L6.19538 29.0321L8.06046 30.6968ZM14.2945 24.0781L15.2748 21.7783L13.6704 21.0944L12.4746 22.364L14.2945 24.0781ZM25.3969 14.3995V11.8995H21.5577L23.1105 15.4106L25.3969 14.3995ZM17.7643 23.4829L17.7634 25.9829L17.7668 25.9829L17.7643 23.4829ZM14.4709 22.7045L13.3393 24.9337L13.3424 24.9353L14.4709 22.7045ZM13.5946 22.8479L15.4135 24.563L15.4152 24.5611L13.5946 22.8479ZM7.01009 29.8311L8.65971 31.7096L8.74821 31.6319L8.82902 31.5462L7.01009 29.8311ZM4.01659 27.0872L2.4647 25.1272L2.3729 25.1999L2.2883 25.2808L4.01659 27.0872ZM11.6338 21.056L10.0868 19.0921L10.0819 19.096L11.6338 21.056ZM11.7891 20.2484L9.64832 21.5396L9.65302 21.5474L9.65778 21.5552L11.7891 20.2484ZM19.317 11.1348L21.0794 12.9078L24.3478 9.65895L19.8423 8.69062L19.317 11.1348ZM15.3625 15.0658L13.6 13.2927L13.5983 13.2944L15.3625 15.0658ZM15.1919 15.6404L17.6262 15.071L17.6253 15.067L15.1919 15.6404ZM15.8565 18.4814L18.2909 17.9124L18.2908 17.9119L15.8565 18.4814ZM16.3987 18.9784L16.8809 16.5253L16.8805 16.5252L16.3987 18.9784ZM19.4981 19.5875L19.9836 17.1351L19.9802 17.1345L19.4981 19.5875ZM20.125 19.4312L21.7371 21.342L21.7399 21.3397L20.125 19.4312ZM24.4088 15.8064L26.8322 15.1922L25.8489 11.3131L22.794 13.898L24.4088 15.8064ZM10.3024 26.3395L8.48342 24.6244H8.48342L10.3024 26.3395ZM25.3992 14.3995L27.6863 13.3899C27.4695 12.8988 27.1364 12.4864 26.7361 12.1752L25.2015 14.1488L23.667 16.1224C23.4408 15.9465 23.2433 15.7061 23.1121 15.409L25.3992 14.3995ZM25.2015 14.1488L26.7361 12.1752C26.3367 11.8646 25.8778 11.6597 25.4029 11.5621L24.8995 14.0109L24.396 16.4597C24.1439 16.4078 23.8923 16.2975 23.667 16.1224L25.2015 14.1488ZM24.8995 14.0109L25.4029 11.5621C24.9282 11.4645 24.4365 11.4737 23.9649 11.5897L24.5621 14.0173L25.1593 16.4449C24.9082 16.5067 24.6479 16.5114 24.396 16.4597L24.8995 14.0109ZM24.5621 14.0173L23.9649 11.5897C23.4931 11.7057 23.0407 11.9292 22.6524 12.2575L24.2665 14.1666L25.8806 16.0757C25.6601 16.2621 25.4106 16.3831 25.1593 16.4449L24.5621 14.0173ZM24.2665 14.1666L22.652 12.2578L17.8212 16.3441L19.4358 18.2528L21.0503 20.1615L25.8811 16.0753L24.2665 14.1666ZM19.4358 18.2528L19.9186 15.7999L17.6238 15.3481L17.1409 17.801L16.6581 20.254L18.9529 20.7057L19.4358 18.2528ZM17.1409 17.801L19.575 17.2307L19.0822 15.1273L16.6481 15.6976L14.214 16.2679L14.7068 18.3713L17.1409 17.801ZM16.6481 15.6976L18.4099 17.4713L22.8678 13.0433L21.106 11.2696L19.3442 9.49587L14.8863 13.9238L16.6481 15.6976ZM21.106 11.2696L22.8682 13.0429C23.2337 12.6797 23.5156 12.2221 23.6681 11.7011L21.2688 10.9987L18.8696 10.2962C18.9629 9.97727 19.1331 9.70563 19.3438 9.49629L21.106 11.2696ZM21.2688 10.9987L23.6681 11.7011C23.8211 11.1788 23.834 10.6254 23.7042 10.0952L21.2759 10.6894L18.8475 11.2836C18.7677 10.9576 18.7758 10.6165 18.8696 10.2962L21.2688 10.9987ZM21.2759 10.6894L23.7042 10.0952C23.5748 9.56623 23.3121 9.0947 22.9603 8.71448L21.1254 10.4125L19.2906 12.1105C19.0864 11.8899 18.927 11.6084 18.8475 11.2836L21.2759 10.6894ZM21.1254 10.4125L22.9603 8.71448C22.6095 8.33541 22.1806 8.0577 21.7212 7.88732L20.8519 10.2313L19.9826 12.5753C19.7348 12.4834 19.4937 12.3301 19.2906 12.1105L21.1254 10.4125ZM20.8519 10.2313L21.7227 7.88786C19.7539 7.15629 17.6009 6.98726 15.5354 7.39608L16.0208 9.8485L16.5062 12.3009C17.6723 12.0701 18.8861 12.1679 19.9812 12.5748L20.8519 10.2313ZM16.0208 9.8485L15.5354 7.39608C13.4695 7.80499 11.5567 8.77958 10.0576 10.2244L11.7925 12.0245L13.5274 13.8245C14.3066 13.0735 15.3405 12.5317 16.5062 12.3009L16.0208 9.8485ZM11.7925 12.0245L10.0576 10.2244C8.55604 11.6716 7.53687 13.5281 7.17265 15.5643L9.63359 16.0045L12.0945 16.4447C12.2652 15.4904 12.7506 14.5732 13.5274 13.8245L11.7925 12.0245ZM9.63359 16.0045L7.17265 15.5643C6.80804 17.6027 7.12429 19.688 8.06347 21.5391L10.2929 20.408L12.5224 19.2769C12.0675 18.3802 11.9242 17.3967 12.0945 16.4447L9.63359 16.0045ZM10.2929 20.408L8.74157 18.4476L1.52071 24.1618L3.07209 26.1222L4.62346 28.0827L11.8443 22.3684L10.2929 20.408ZM3.07209 26.1222L1.57213 24.1222C1.50151 24.1752 1.44569 24.2224 1.40916 24.2543C1.37614 24.2831 1.34729 24.3097 1.34518 24.3117L3.03445 26.1546L4.72371 27.9975C4.73454 27.9876 4.71804 28.0029 4.69737 28.0209C4.6732 28.042 4.62972 28.079 4.57204 28.1223L3.07209 26.1222ZM3.03445 26.1546L1.34561 24.3113C0.776625 24.8326 0.312426 25.4634 -0.00892162 26.174L2.26901 27.2041L4.54694 28.2342C4.58057 28.1598 4.63657 28.0774 4.72328 27.9979L3.03445 26.1546ZM2.26901 27.2041L-0.00892162 26.174C-0.330599 26.8854 -0.499798 27.6566 -0.5 28.4416L2 28.4422L4.5 28.4428C4.50002 28.378 4.51364 28.3078 4.54694 28.2342L2.26901 27.2041ZM2 28.4422L-0.5 28.4416C-0.50041 30.0364 0.192357 31.5171 1.34357 32.5728L3.03327 30.7303L4.72297 28.8877C4.55056 28.7296 4.49997 28.5642 4.5 28.4428L2 28.4422ZM3.03327 30.7303L1.34357 32.5728C2.48749 33.6218 3.99607 34.1781 5.52844 34.1785L5.52898 31.6785L5.52952 29.1785C5.18956 29.1784 4.90267 29.0525 4.72297 28.8877L3.03327 30.7303ZM5.52898 31.6785L5.52844 34.1785C7.0608 34.1788 8.56961 33.6232 9.71401 32.5747L8.02518 30.7313L6.33634 28.888C6.15649 29.0528 5.86948 29.1785 5.52952 29.1785L5.52898 31.6785ZM8.02518 30.7313L9.71444 32.5743C9.71637 32.5725 9.74556 32.5459 9.77722 32.5155C9.81208 32.4819 9.86518 32.4292 9.92554 32.3616L8.06046 30.6968L6.19538 29.0321C6.24515 28.9763 6.28708 28.935 6.31019 28.9127C6.33008 28.8936 6.34692 28.8783 6.33591 28.8884L8.02518 30.7313ZM8.06046 30.6968L9.88034 32.4109L16.1143 25.7921L14.2945 24.0781L12.4746 22.364L6.24059 28.9828L8.06046 30.6968ZM14.2945 24.0781L13.3141 26.3778C15.2445 27.2007 17.387 27.4677 19.4701 27.1547L19.0986 24.6824L18.727 22.2102C17.5477 22.3874 16.3422 22.2333 15.2748 21.7783L14.2945 24.0781ZM19.0986 24.6824L19.4701 27.1547C21.5536 26.8416 23.5124 25.9576 25.0834 24.588L23.4406 22.7035L21.7978 20.8191C20.9732 21.5379 19.9061 22.033 18.727 22.2102L19.0986 24.6824ZM23.4406 22.7035L25.0834 24.588C26.6568 23.2164 27.7735 21.4146 28.2479 19.401L25.8145 18.8278L23.3811 18.2545C23.1576 19.2031 22.62 20.1023 21.7978 20.8191L23.4406 22.7035ZM25.8145 18.8278L28.2479 19.401C28.7229 17.3847 28.5224 15.2857 27.6833 13.3883L25.3969 14.3995L23.1105 15.4106C23.5134 16.3217 23.6039 17.3087 23.3811 18.2545L25.8145 18.8278ZM25.3969 14.3995V16.8995H25.3992V14.3995V11.8995H25.3969V14.3995ZM17.7643 23.4829L17.7653 20.9829C16.9974 20.9826 16.2515 20.8035 15.5994 20.4737L14.4709 22.7045L13.3424 24.9353C14.7074 25.6258 16.2275 25.9823 17.7634 25.9829L17.7643 23.4829ZM14.4709 22.7045L15.6024 20.4752C14.9787 20.1586 14.2754 20.0561 13.6013 20.1664L14.005 22.6336L14.4087 25.1008C14.0537 25.1589 13.6795 25.1064 13.3393 24.9337L14.4709 22.7045ZM14.005 22.6336L13.6013 20.1664C12.9264 20.2768 12.2749 20.6023 11.774 21.1346L13.5946 22.8479L15.4152 24.5611C15.1261 24.8684 14.7643 25.0426 14.4087 25.1008L14.005 22.6336ZM7.01009 29.8311L5.36047 27.9526C5.40377 27.9146 5.44333 27.8945 5.47204 27.8841C5.50079 27.8737 5.52583 27.8702 5.54729 27.8704L5.52274 30.3703L5.49819 32.8702C6.63994 32.8814 7.7772 32.4846 8.65971 31.7096L7.01009 29.8311ZM5.52274 30.3703L5.54729 27.8704C5.56876 27.8706 5.59431 27.8746 5.62386 27.886C5.65338 27.8973 5.69384 27.919 5.7376 27.9591L4.04833 29.802L2.35906 31.6449C3.22616 32.4397 4.35637 32.859 5.49819 32.8702L5.52274 30.3703ZM4.04833 29.802L5.7376 27.9591C5.82859 28.0425 5.92561 28.2029 5.92816 28.4213L3.42833 28.4505L0.928506 28.4797C0.942922 29.7131 1.48507 30.8438 2.35906 31.6449L4.04833 29.802ZM3.42833 28.4505L5.92816 28.4213C5.93072 28.6401 5.83704 28.8054 5.74489 28.8936L4.01659 27.0872L2.2883 25.2808C1.43011 26.1019 0.914084 27.246 0.928506 28.4797L3.42833 28.4505ZM4.01659 27.0872L5.56849 29.0472L13.1857 23.016L11.6338 21.056L10.0819 19.096L2.4647 25.1272L4.01659 27.0872ZM11.6338 21.056L13.1808 23.0199C13.7509 22.5708 14.1761 21.9187 14.3239 21.1497L11.8689 20.6776L9.41385 20.2056C9.5051 19.731 9.7642 19.3463 10.0868 19.0921L11.6338 21.056ZM11.8689 20.6776L14.3239 21.1497C14.4725 20.3767 14.3193 19.5923 13.9204 18.9417L11.7891 20.2484L9.65778 21.5552C9.41875 21.1653 9.32185 20.6841 9.41385 20.2056L11.8689 20.6776ZM11.7891 20.2484L13.9299 18.9573C13.5542 18.3345 13.3945 17.6463 13.4473 16.9709L10.9549 16.7762L8.46253 16.5814C8.32663 18.3201 8.74648 20.0443 9.64832 21.5396L11.7891 20.2484ZM10.9549 16.7762L13.4473 16.9709C13.5002 16.2947 13.767 15.6228 14.2481 15.0404L12.3206 13.4483L10.3931 11.8562C9.28032 13.2034 8.59835 14.8435 8.46253 16.5814L10.9549 16.7762ZM12.3206 13.4483L14.2481 15.0404C14.7313 14.4553 15.4132 13.9843 16.2294 13.7143L15.4446 11.3407L14.6597 8.96715C12.9922 9.51853 11.5037 10.5117 10.3931 11.8562L12.3206 13.4483ZM15.4446 11.3407L16.2294 13.7143C17.0464 13.4442 17.9392 13.3958 18.7916 13.579L19.317 11.1348L19.8423 8.69062C18.124 8.32134 16.3265 8.41599 14.6597 8.96715L15.4446 11.3407ZM19.317 11.1348L17.5545 9.36177L13.6 13.2927L15.3625 15.0658L17.125 16.8388L21.0794 12.9078L19.317 11.1348ZM15.3625 15.0658L13.5983 13.2944C13.2367 13.6545 12.9571 14.1073 12.8041 14.6227L15.2008 15.334L17.5974 16.0453C17.5038 16.3607 17.3351 16.6295 17.1266 16.8371L15.3625 15.0658ZM15.2008 15.334L12.8041 14.6227C12.6507 15.1395 12.6345 15.6874 12.7586 16.2138L15.1919 15.6404L17.6253 15.067C17.7016 15.3908 17.6914 15.7286 17.5974 16.0453L15.2008 15.334ZM15.1919 15.6404L12.7576 16.2099L13.4222 19.0508L15.8565 18.4814L18.2908 17.9119L17.6262 15.071L15.1919 15.6404ZM15.8565 18.4814L13.4221 19.0503C13.5701 19.6837 13.9077 20.2332 14.3583 20.6462L16.0475 18.8033L17.7368 16.9603C17.995 17.197 18.1999 17.5229 18.2909 17.9124L15.8565 18.4814ZM16.0475 18.8033L14.3583 20.6462C14.8068 21.0573 15.3514 21.3205 15.917 21.4315L16.3987 18.9784L16.8805 16.5252C17.18 16.5841 17.4807 16.7256 17.7368 16.9603L16.0475 18.8033ZM16.3987 18.9784L15.9166 21.4315L19.016 22.0406L19.4981 19.5875L19.9802 17.1345L16.8809 16.5253L16.3987 18.9784ZM19.4981 19.5875L19.0126 22.0399C19.4833 22.1331 19.9703 22.1216 20.4372 22.0052L19.8323 19.5794L19.2275 17.1537C19.4762 17.0917 19.7339 17.0857 19.9836 17.1351L19.4981 19.5875ZM19.8323 19.5794L20.4372 22.0052C20.9044 21.8887 21.3521 21.6668 21.7371 21.342L20.125 19.4312L18.513 17.5204C18.7315 17.336 18.9786 17.2158 19.2275 17.1537L19.8323 19.5794ZM20.125 19.4312L21.7399 21.3397L26.0237 17.7149L24.4088 15.8064L22.794 13.898L18.5102 17.5227L20.125 19.4312ZM24.4088 15.8064L21.9855 16.4207C22.1175 16.9414 22.1195 17.4797 21.9916 18.0009L24.4196 18.5966L26.8476 19.1922C27.1707 17.8756 27.1653 16.5064 26.8322 15.1922L24.4088 15.8064ZM24.4196 18.5966L21.9916 18.0009C21.8635 18.523 21.6045 19.0294 21.2165 19.4777L23.1067 21.1138L24.997 22.75C25.8863 21.7225 26.5248 20.508 26.8476 19.1922L24.4196 18.5966ZM23.1067 21.1138L21.2165 19.4777C20.8277 19.9269 20.3188 20.3061 19.7175 20.5728L20.731 22.8581L21.7444 25.1435C22.9932 24.5897 24.1084 23.7765 24.997 22.75L23.1067 21.1138ZM20.731 22.8581L19.7175 20.5728C19.1159 20.8395 18.4467 20.9822 17.7618 20.9829L17.7643 23.4829L17.7668 25.9829C19.1371 25.9815 20.496 25.6971 21.7444 25.1435L20.731 22.8581ZM13.5946 22.8479L11.7757 21.1328L8.48342 24.6244L10.3024 26.3395L12.1213 28.0546L15.4135 24.563L13.5946 22.8479ZM10.3024 26.3395L8.48342 24.6244L5.19116 28.116L7.01009 29.8311L8.82902 31.5462L12.1213 28.0546L10.3024 26.3395Z" fill="#C62742" mask="url(#path-1-inside-1_2101_6419)"/>
<path fill-rule="evenodd" clip-rule="evenodd" d="M21.1916 2.0209C21.3127 1.99234 21.4397 1.99332 21.5607 2.02237C22.7635 2.31734 23.9228 2.77044 25.0064 3.36975C25.1163 3.42937 25.2104 3.51459 25.2815 3.61743C25.3525 3.72036 25.3982 3.83849 25.415 3.96243L25.8392 7.19891C26.0253 7.36588 26.2052 7.54 26.3793 7.71956L29.6296 8.01626C29.754 8.02828 29.8745 8.06881 29.9801 8.13572C30.0856 8.20273 30.1736 8.29434 30.2374 8.40179C30.88 9.46244 31.3785 10.6043 31.7197 11.7965C31.7541 11.9161 31.76 12.0426 31.7368 12.1649C31.7136 12.2872 31.662 12.4026 31.5862 12.5014L29.6023 15.0808C29.6151 15.3311 29.6199 15.5832 29.6168 15.8339L31.7021 18.3425C31.7815 18.4381 31.8371 18.5511 31.865 18.6722C31.8929 18.7934 31.8923 18.9196 31.8626 19.0403C31.5678 20.2429 31.1149 21.4017 30.5152 22.485C30.4556 22.5951 30.3706 22.69 30.2676 22.7611C30.1645 22.8321 30.0456 22.8778 29.9216 22.8946L26.6851 23.3178C26.518 23.504 26.3441 23.6848 26.1644 23.8589L25.8678 27.1073C25.8558 27.2319 25.8144 27.352 25.7473 27.4577C25.6802 27.5634 25.5889 27.6522 25.4812 27.716C24.4224 28.3578 23.2825 28.8558 22.0924 29.1974C22.0262 29.216 21.9577 29.2271 21.889 29.2287C21.7084 29.2324 21.5309 29.1738 21.3875 29.0639L18.8004 27.0741C18.5502 27.0868 18.2978 27.0917 18.0473 27.0886L15.5533 29.1691C15.4577 29.2484 15.3447 29.3042 15.2237 29.3321C15.1024 29.3599 14.9753 29.3593 14.8545 29.3296C13.8433 29.0816 12.8641 28.7202 11.9337 28.2557L13.1916 27.0925C13.7254 27.3263 14.2748 27.5237 14.8366 27.6809L17.2597 25.6623C17.4112 25.5364 17.6046 25.4707 17.8014 25.4788C18.1957 25.4937 18.5909 25.4867 18.9843 25.4566L19.0322 25.455C19.2128 25.4513 19.3892 25.51 19.5326 25.6198L22.0335 27.5425C22.8258 27.2889 23.5918 26.9564 24.3182 26.5509L24.606 23.4108C24.6248 23.2147 24.7163 23.0325 24.8617 22.8995C25.1518 22.6319 25.4258 22.3469 25.6822 22.0467C25.8094 21.8962 25.9885 21.7975 26.1838 21.7711L29.3127 21.3625L29.3058 21.3625C29.6835 20.622 29.9858 19.8452 30.2092 19.0446L28.1915 16.6215C28.0657 16.4699 27.9998 16.2766 28.008 16.0797C28.0229 15.6856 28.0159 15.291 27.9858 14.8978C27.9699 14.7016 28.0273 14.5058 28.1471 14.3495L30.0707 11.8486C29.8165 11.0596 29.484 10.298 29.079 9.57471L25.939 9.28586C25.7428 9.26699 25.5596 9.17661 25.4267 9.03111C25.1589 8.74106 24.8741 8.46696 24.5739 8.21068C24.4234 8.08347 24.3256 7.90432 24.2992 7.70909L23.8897 4.58115C23.1493 4.2027 22.3726 3.89901 21.5718 3.67489L19.1487 5.69258C18.9972 5.81832 18.8037 5.88318 18.607 5.87507C18.2126 5.86016 17.8165 5.86816 17.4231 5.8983C17.2268 5.91393 17.031 5.85585 16.8748 5.73599L14.3739 3.81334C13.584 4.06729 12.8212 4.40001 12.0971 4.805L11.8082 7.94504C11.7893 8.14109 11.6989 8.32347 11.5535 8.45638C11.2633 8.7241 10.9884 9.00894 10.7321 9.30916C10.6048 9.45964 10.4258 9.55748 10.2305 9.58383L7.10447 9.99338C6.72592 10.7337 6.42239 11.5106 6.19821 12.3113L8.21689 14.7344C8.3427 14.886 8.40761 15.0793 8.39938 15.2761C8.38447 15.6702 8.39251 16.0648 8.42262 16.458C8.43845 16.6545 8.3803 16.8499 8.26031 17.0063L6.33766 19.5072C6.56871 20.2257 6.86442 20.9218 7.22079 21.5868L6.02004 22.6968C5.45072 21.7112 5.00197 20.6598 4.68764 19.5652C4.65342 19.4458 4.6484 19.3199 4.67151 19.1978C4.69471 19.0756 4.74633 18.96 4.82209 18.8613L6.81287 16.28C6.80008 16.0296 6.79426 15.7776 6.79738 15.5269L4.71014 13.0202C4.63192 12.9254 4.57694 12.8132 4.5491 12.6935C4.52131 12.5738 4.52113 12.4488 4.54954 12.3292C4.84459 11.1268 5.29846 9.96887 5.89788 8.88549C5.95747 8.77557 6.04173 8.68054 6.14459 8.60944C6.24755 8.53837 6.36659 8.49273 6.49057 8.47592L9.72907 8.04494C9.89612 7.85963 10.0691 7.67878 10.2487 7.50383L10.5405 4.25541C10.5525 4.13088 10.594 4.01059 10.661 3.90495C10.7281 3.79933 10.8195 3.71052 10.9271 3.64666C11.988 3.0042 13.1303 2.50551 14.3228 2.16436C14.4421 2.13015 14.5682 2.12425 14.6901 2.14725C14.8123 2.17042 14.928 2.22224 15.0266 2.29783L17.6021 4.28856C17.8524 4.27577 18.1045 4.27094 18.3552 4.27404L20.8619 2.18681C20.9571 2.10671 21.0705 2.04957 21.1916 2.0209Z" fill="#C62742"/>
</g>
<defs>
<filter id="filter0_d_2101_6419" x="0" y="0" width="33.8848" height="33.6785" filterUnits="userSpaceOnUse" color-interpolation-filters="sRGB">
<feFlood flood-opacity="0" result="BackgroundImageFix"/>
<feColorMatrix in="SourceAlpha" type="matrix" values="0 0 0 0 0 0 0 0 0 0 0 0 0 0 0 0 0 0 127 0" result="hardAlpha"/>
<feOffset/>
<feGaussianBlur stdDeviation="1"/>
<feComposite in2="hardAlpha" operator="out"/>
<feColorMatrix type="matrix" values="0 0 0 0 0 0 0 0 0 0 0 0 0 0 0 0 0 0 0.15 0"/>
<feBlend mode="normal" in2="BackgroundImageFix" result="effect1_dropShadow_2101_6419"/>
<feBlend mode="normal" in="SourceGraphic" in2="effect1_dropShadow_2101_6419" result="shape"/>
</filter>
</defs>
</svg>
