<svg width="1289" height="271" viewBox="0 0 1289 271" fill="none" xmlns="http://www.w3.org/2000/svg">
<path d="M42 181H105V249H42V181Z" fill="#9D0D0D"/>
<path d="M85 124C96.0457 124 105 132.954 105 144V186H84V207H63V228H42V249H20C8.95431 249 0 240.046 0 229V124H85Z" fill="white"/>
<path d="M84 228H105V249H84V228Z" fill="white"/>
<path d="M75 28C86.0457 28 95 36.9543 95 48V92H30C18.9543 92 10 83.0457 10 72V28H75Z" fill="#9D0D0D" stroke="white" stroke-width="20"/>
<path d="M41 54C41 51.2386 43.2386 49 46 49H59C61.7614 49 64 51.2386 64 54V66C64 68.7614 61.7614 71 59 71H46C43.2386 71 41 68.7614 41 66V54Z" fill="white"/>
<path d="M169.5 193.66V134.26H297.54V193.66H169.5Z" fill="white"/>
<path d="M378.18 260V89.72H306.9V29H522.72V89.72H449.46V260H378.18Z" fill="white"/>
<path d="M562.4 260V29H670.64C686.7 29 701 32.19 713.54 38.57C726.08 44.95 735.87 53.64 742.91 64.64C749.95 75.64 753.47 88.29 753.47 102.59C753.47 118.65 749.95 132.73 742.91 144.83C735.87 156.93 726.08 166.39 713.54 173.21C701 179.81 686.7 183.11 670.64 183.11H629.06V260H562.4ZM683.51 260L624.77 155.72L697.7 147.47L763.04 260H683.51ZM629.06 133.61H659.42C664.92 133.61 669.43 132.62 672.95 130.64C676.69 128.44 679.44 125.47 681.2 121.73C683.18 117.99 684.17 113.48 684.17 108.2C684.17 103.36 683.18 99.29 681.2 95.99C679.44 92.47 676.58 89.83 672.62 88.07C668.88 86.09 664.04 85.1 658.1 85.1H629.06V133.61Z" fill="white"/>
<path d="M796.4 260L889.13 29H945.23L1037.3 260H966.68L929.72 159.02C927.3 152.2 925.21 146.37 923.45 141.53C921.69 136.69 920.15 132.18 918.83 128C917.51 123.6 916.19 118.98 914.87 114.14C913.55 109.08 912.23 103.14 910.91 96.32H922.13C920.81 103.14 919.49 109.08 918.17 114.14C916.85 118.98 915.42 123.6 913.88 128C912.56 132.18 910.91 136.69 908.93 141.53C907.17 146.37 905.08 152.2 902.66 159.02L865.7 260H796.4ZM842.6 225.68L863.39 177.17H970.64L989.45 225.68H842.6Z" fill="white"/>
<path d="M1179.92 263.3C1161.44 263.3 1144.39 260.33 1128.77 254.39C1113.37 248.45 1099.95 240.2 1088.51 229.64C1077.29 218.86 1068.6 206.1 1062.44 191.36C1056.28 176.62 1053.2 160.45 1053.2 142.85C1053.2 125.25 1056.28 109.08 1062.44 94.34C1068.82 79.6 1077.73 66.95 1089.17 56.39C1100.61 45.61 1114.14 37.25 1129.76 31.31C1145.6 25.37 1162.98 22.4 1181.9 22.4C1192.68 22.4 1203.24 23.72 1213.58 26.36C1224.14 28.78 1234.04 32.63 1243.28 37.91C1252.74 42.97 1261.32 49.46 1269.02 57.38L1226.45 107.21C1223.37 103.47 1219.63 100.06 1215.23 96.98C1211.05 93.9 1206.1 91.48 1200.38 89.72C1194.88 87.74 1188.5 86.75 1181.24 86.75C1173.76 86.75 1166.61 88.07 1159.79 90.71C1153.19 93.13 1147.36 96.76 1142.3 101.6C1137.46 106.44 1133.61 112.38 1130.75 119.42C1127.89 126.46 1126.46 134.6 1126.46 143.84C1126.46 152.2 1127.89 159.79 1130.75 166.61C1133.61 173.43 1137.68 179.26 1142.96 184.1C1148.24 188.94 1154.62 192.68 1162.1 195.32C1169.58 197.96 1177.94 199.28 1187.18 199.28C1193.78 199.28 1200.05 198.29 1205.99 196.31C1211.93 194.33 1217.32 191.8 1222.16 188.72C1227 185.42 1231.18 181.79 1234.7 177.83L1268.69 231.29C1262.97 237.45 1255.38 242.95 1245.92 247.79C1236.46 252.63 1226.01 256.48 1214.57 259.34C1203.13 261.98 1191.58 263.3 1179.92 263.3Z" fill="white"/>
</svg>
