<svg width="23" height="17" viewBox="0 0 23 17" fill="none" xmlns="http://www.w3.org/2000/svg">
<path d="M22.1675 8.31283V15.0423C22.1675 15.4622 22.0007 15.8649 21.7038 16.1619C21.4068 16.4588 21.0041 16.6257 20.5841 16.6257H1.5834C1.16345 16.6257 0.76071 16.4588 0.463766 16.1619C0.166822 15.8649 0 15.4622 0 15.0423V8.31283C0 8.20784 0.0417055 8.10716 0.115942 8.03292C0.190178 7.95868 0.290863 7.91698 0.395849 7.91698H3.95849V14.2506C3.95825 14.3591 3.98033 14.4665 4.02336 14.5662C4.06638 14.6658 4.12943 14.7555 4.2086 14.8298C4.28776 14.904 4.38135 14.9612 4.48354 14.9977C4.58573 15.0343 4.69434 15.0495 4.80264 15.0423C5.00657 15.0248 5.19626 14.9305 5.33346 14.7787C5.47066 14.6268 5.54514 14.4285 5.54189 14.2238V7.91698H9.50038V9.89622C9.50038 10.0012 9.54208 10.1019 9.61632 10.1761C9.69055 10.2504 9.79124 10.2921 9.89622 10.2921H12.2713C12.3763 10.2921 12.477 10.2504 12.5512 10.1761C12.6255 10.1019 12.6672 10.0012 12.6672 9.89622V7.91698H16.6257V14.2506C16.6254 14.3591 16.6475 14.4665 16.6905 14.5662C16.7336 14.6658 16.7966 14.7555 16.8758 14.8298C16.9549 14.904 17.0485 14.9612 17.1507 14.9977C17.2529 15.0343 17.3615 15.0495 17.4698 15.0423C17.6734 15.0248 17.8628 14.9309 17.9999 14.7794C18.1371 14.6279 18.2118 14.4301 18.2091 14.2258V7.91698H21.7717C21.8767 7.91698 21.9774 7.95868 22.0516 8.03292C22.1258 8.10716 22.1675 8.20784 22.1675 8.31283ZM16.6257 0H5.54189C4.07209 0 2.66249 0.583876 1.62318 1.62318C0.583876 2.66249 0 4.07209 0 5.54189V5.93773C0 6.04272 0.0417055 6.14341 0.115942 6.21764C0.190178 6.29188 0.290863 6.33358 0.395849 6.33358H3.95849V2.40181C3.95523 2.19716 4.02972 1.99889 4.16691 1.847C4.30411 1.69511 4.49381 1.60091 4.69774 1.5834C4.80603 1.57621 4.91465 1.59136 5.01684 1.62791C5.11903 1.66447 5.21261 1.72164 5.29178 1.79589C5.37094 1.87013 5.43399 1.95986 5.47702 2.0595C5.52005 2.15914 5.54212 2.26656 5.54189 2.37509V6.33358H9.50038V5.14604C9.50038 5.04105 9.54208 4.94037 9.61632 4.86613C9.69055 4.79189 9.79124 4.75019 9.89622 4.75019H12.2713C12.3763 4.75019 12.477 4.79189 12.5512 4.86613C12.6255 4.94037 12.6672 5.04105 12.6672 5.14604V6.33358H16.6257V2.40181C16.6224 2.19716 16.6969 1.99889 16.8341 1.847C16.9713 1.69511 17.161 1.60091 17.3649 1.5834C17.4732 1.57621 17.5818 1.59136 17.684 1.62791C17.7862 1.66447 17.8798 1.72164 17.9589 1.79589C18.0381 1.87013 18.1012 1.95986 18.1442 2.0595C18.1872 2.15914 18.2093 2.26656 18.2091 2.37509V6.33358H21.7717C21.8767 6.33358 21.9774 6.29188 22.0516 6.21764C22.1258 6.14341 22.1675 6.04272 22.1675 5.93773V5.54189C22.1675 4.07209 21.5837 2.66249 20.5444 1.62318C19.5051 0.583876 18.0955 0 16.6257 0Z" fill="#C62742"/>
</svg>
