<svg width="70" height="70" viewBox="0 0 70 70" fill="none" xmlns="http://www.w3.org/2000/svg">
<rect x="0.5" y="0.5" width="69" height="69" rx="34.5" fill="#BA1A1A" stroke="#BA1A1A"/>
<g filter="url(#filter0_d_4038_8189)">
<mask id="path-2-inside-1_4038_8189" fill="white">
<path d="M43.3992 33.5544C43.3564 33.4574 43.2886 33.3714 43.2015 33.3037C43.1145 33.236 43.0108 33.1887 42.8995 33.1658C42.7881 33.1429 42.6723 33.1451 42.5621 33.1722C42.4518 33.1993 42.3504 33.2505 42.2665 33.3215L37.4358 37.4077L35.1409 36.9559L34.6481 34.8525L39.106 30.4245C39.1834 30.3476 39.2393 30.2546 39.2688 30.1536C39.2984 30.0525 39.3008 29.9464 39.2759 29.8443C39.2509 29.7422 39.1993 29.6472 39.1254 29.5674C39.0516 29.4876 38.9577 29.4255 38.8519 29.3862C37.32 28.817 35.6366 28.6836 34.0208 29.0034C32.405 29.3232 30.9317 30.0814 29.7925 31.1794C28.6533 32.2773 27.901 33.6641 27.6336 35.1594C27.3661 36.6546 27.5959 38.189 28.2929 39.5629L21.0721 45.2771C21.0591 45.2868 21.0474 45.2976 21.0344 45.3095C20.7066 45.6099 20.4465 45.9665 20.269 46.359C20.0915 46.7515 20.0001 47.1722 20 47.5971C19.9998 48.4552 20.3715 49.2783 21.0333 49.8852C21.6951 50.4921 22.5928 50.8332 23.529 50.8334C24.4651 50.8336 25.3631 50.4929 26.0252 49.8863C26.0381 49.8744 26.0499 49.8636 26.0605 49.8518L32.2945 43.233C33.7933 43.8719 35.4673 44.0825 37.0986 43.8373C38.7298 43.5922 40.2428 42.9026 41.4406 41.8584C42.6384 40.8142 43.4656 39.4637 43.8145 37.9827C44.1634 36.5016 44.0179 34.9586 43.3969 33.5544H43.3992ZM35.7643 42.6378C34.6124 42.6374 33.4794 42.3696 32.4709 41.8594C32.3291 41.7874 32.1646 41.7624 32.005 41.7885C31.8454 41.8146 31.7005 41.8903 31.5946 42.0028L28.3024 45.4944L25.0101 48.986C24.6103 49.3371 24.0764 49.5306 23.5227 49.5252C22.9691 49.5198 22.4398 49.3158 22.0483 48.9569C21.6568 48.5981 21.4343 48.1129 21.4283 47.6054C21.4224 47.098 21.6336 46.6086 22.0166 46.2421L29.6338 40.2109C29.7575 40.1135 29.8406 39.9798 29.8689 39.8326C29.8972 39.6853 29.869 39.5337 29.7891 39.4034C29.1504 38.3443 28.8606 37.1381 28.9549 35.9311C29.0493 34.724 29.5237 33.568 30.3206 32.6032C31.1175 31.6384 32.2027 30.9063 33.4446 30.4957C34.6864 30.085 36.0316 30.0135 37.317 30.2897L33.3625 34.2207C33.2859 34.2969 33.2304 34.3889 33.2008 34.4889C33.1711 34.5889 33.1681 34.694 33.1919 34.7953L33.8565 37.6363C33.885 37.7582 33.9513 37.87 34.0475 37.9582C34.1437 38.0464 34.2657 38.1072 34.3987 38.1333L37.4981 38.7424C37.6086 38.7643 37.7232 38.7615 37.8323 38.7343C37.9415 38.7071 38.0418 38.6563 38.125 38.5861L42.4088 34.9614C42.6414 35.8788 42.6451 36.8325 42.4196 37.7515C42.1942 38.6704 41.7454 39.5309 41.1067 40.2687C40.4681 41.0066 39.656 41.6028 38.731 42.013C37.806 42.4232 36.7919 42.6368 35.7643 42.6378Z"/>
</mask>
<path d="M43.3992 33.5544C43.3564 33.4574 43.2886 33.3714 43.2015 33.3037C43.1145 33.236 43.0108 33.1887 42.8995 33.1658C42.7881 33.1429 42.6723 33.1451 42.5621 33.1722C42.4518 33.1993 42.3504 33.2505 42.2665 33.3215L37.4358 37.4077L35.1409 36.9559L34.6481 34.8525L39.106 30.4245C39.1834 30.3476 39.2393 30.2546 39.2688 30.1536C39.2984 30.0525 39.3008 29.9464 39.2759 29.8443C39.2509 29.7422 39.1993 29.6472 39.1254 29.5674C39.0516 29.4876 38.9577 29.4255 38.8519 29.3862C37.32 28.817 35.6366 28.6836 34.0208 29.0034C32.405 29.3232 30.9317 30.0814 29.7925 31.1794C28.6533 32.2773 27.901 33.6641 27.6336 35.1594C27.3661 36.6546 27.5959 38.189 28.2929 39.5629L21.0721 45.2771C21.0591 45.2868 21.0474 45.2976 21.0344 45.3095C20.7066 45.6099 20.4465 45.9665 20.269 46.359C20.0915 46.7515 20.0001 47.1722 20 47.5971C19.9998 48.4552 20.3715 49.2783 21.0333 49.8852C21.6951 50.4921 22.5928 50.8332 23.529 50.8334C24.4651 50.8336 25.3631 50.4929 26.0252 49.8863C26.0381 49.8744 26.0499 49.8636 26.0605 49.8518L32.2945 43.233C33.7933 43.8719 35.4673 44.0825 37.0986 43.8373C38.7298 43.5922 40.2428 42.9026 41.4406 41.8584C42.6384 40.8142 43.4656 39.4637 43.8145 37.9827C44.1634 36.5016 44.0179 34.9586 43.3969 33.5544H43.3992ZM35.7643 42.6378C34.6124 42.6374 33.4794 42.3696 32.4709 41.8594C32.3291 41.7874 32.1646 41.7624 32.005 41.7885C31.8454 41.8146 31.7005 41.8903 31.5946 42.0028L28.3024 45.4944L25.0101 48.986C24.6103 49.3371 24.0764 49.5306 23.5227 49.5252C22.9691 49.5198 22.4398 49.3158 22.0483 48.9569C21.6568 48.5981 21.4343 48.1129 21.4283 47.6054C21.4224 47.098 21.6336 46.6086 22.0166 46.2421L29.6338 40.2109C29.7575 40.1135 29.8406 39.9798 29.8689 39.8326C29.8972 39.6853 29.869 39.5337 29.7891 39.4034C29.1504 38.3443 28.8606 37.1381 28.9549 35.9311C29.0493 34.724 29.5237 33.568 30.3206 32.6032C31.1175 31.6384 32.2027 30.9063 33.4446 30.4957C34.6864 30.085 36.0316 30.0135 37.317 30.2897L33.3625 34.2207C33.2859 34.2969 33.2304 34.3889 33.2008 34.4889C33.1711 34.5889 33.1681 34.694 33.1919 34.7953L33.8565 37.6363C33.885 37.7582 33.9513 37.87 34.0475 37.9582C34.1437 38.0464 34.2657 38.1072 34.3987 38.1333L37.4981 38.7424C37.6086 38.7643 37.7232 38.7615 37.8323 38.7343C37.9415 38.7071 38.0418 38.6563 38.125 38.5861L42.4088 34.9614C42.6414 35.8788 42.6451 36.8325 42.4196 37.7515C42.1942 38.6704 41.7454 39.5309 41.1067 40.2687C40.4681 41.0066 39.656 41.6028 38.731 42.013C37.806 42.4232 36.7919 42.6368 35.7643 42.6378Z" fill="white"/>
<path d="M43.3992 33.5544V36.0544H47.2354L45.6863 32.5448L43.3992 33.5544ZM42.2665 33.3215L40.6524 31.4124L40.652 31.4128L42.2665 33.3215ZM37.4358 37.4077L36.9529 39.8606L38.1324 40.0928L39.0503 39.3164L37.4358 37.4077ZM35.1409 36.9559L32.7068 37.5262L33.0749 39.0972L34.6581 39.4089L35.1409 36.9559ZM34.6481 34.8525L32.8863 33.0788L31.8954 34.063L32.214 35.4228L34.6481 34.8525ZM39.106 30.4245L40.8678 32.1982L40.8682 32.1978L39.106 30.4245ZM38.8519 29.3862L37.9811 31.7297L37.9826 31.7302L38.8519 29.3862ZM28.2929 39.5629L29.8443 41.5233L31.4473 40.2548L30.5224 38.4318L28.2929 39.5629ZM21.0721 45.2771L22.572 47.2772L22.598 47.2577L22.6235 47.2376L21.0721 45.2771ZM21.0344 45.3095L22.7233 47.1528L22.7237 47.1524L21.0344 45.3095ZM20 47.5971L17.5 47.5965L20 47.5971ZM26.0252 49.8863L27.714 51.7296L27.7144 51.7292L26.0252 49.8863ZM26.0605 49.8518L24.2406 48.1377L24.2177 48.162L24.1954 48.187L26.0605 49.8518ZM32.2945 43.233L33.2748 40.9332L31.6704 40.2493L30.4746 41.5189L32.2945 43.233ZM43.3969 33.5544V31.0544H39.5577L41.1105 34.5655L43.3969 33.5544ZM35.7643 42.6378L35.7634 45.1378L35.7668 45.1378L35.7643 42.6378ZM32.4709 41.8594L31.3393 44.0887L31.3424 44.0902L32.4709 41.8594ZM31.5946 42.0028L33.4135 43.7179L33.4152 43.7161L31.5946 42.0028ZM25.0101 48.986L26.6597 50.8645L26.7482 50.7868L26.829 50.7011L25.0101 48.986ZM22.0166 46.2421L20.4647 44.2821L20.3729 44.3548L20.2883 44.4357L22.0166 46.2421ZM29.6338 40.2109L28.0868 38.247L28.0819 38.2509L29.6338 40.2109ZM29.7891 39.4034L27.6483 40.6945L27.653 40.7023L27.6578 40.7101L29.7891 39.4034ZM37.317 30.2897L39.0794 32.0627L42.3478 28.8139L37.8423 27.8455L37.317 30.2897ZM33.3625 34.2207L31.6 32.4476L31.5983 32.4493L33.3625 34.2207ZM33.1919 34.7953L35.6262 34.2259L35.6253 34.2219L33.1919 34.7953ZM33.8565 37.6363L36.2909 37.0673L36.2908 37.0668L33.8565 37.6363ZM34.3987 38.1333L34.8809 35.6802L34.8805 35.6801L34.3987 38.1333ZM37.4981 38.7424L37.9836 36.29L37.9802 36.2894L37.4981 38.7424ZM38.125 38.5861L39.7371 40.4969L39.7399 40.4946L38.125 38.5861ZM42.4088 34.9614L44.8322 34.3471L43.8489 30.468L40.794 33.0529L42.4088 34.9614ZM28.3024 45.4944L26.4834 43.7793H26.4834L28.3024 45.4944ZM43.3992 33.5544L45.6863 32.5448C45.4695 32.0537 45.1364 31.6413 44.7361 31.3301L43.2015 33.3037L41.667 35.2773C41.4408 35.1014 41.2433 34.861 41.1121 34.5639L43.3992 33.5544ZM43.2015 33.3037L44.7361 31.3301C44.3367 31.0195 43.8778 30.8146 43.4029 30.717L42.8995 33.1658L42.396 35.6146C42.1439 35.5627 41.8923 35.4524 41.667 35.2773L43.2015 33.3037ZM42.8995 33.1658L43.4029 30.717C42.9282 30.6194 42.4365 30.6286 41.9649 30.7446L42.5621 33.1722L43.1593 35.5998C42.9082 35.6616 42.6479 35.6664 42.396 35.6146L42.8995 33.1658ZM42.5621 33.1722L41.9649 30.7446C41.4931 30.8606 41.0407 31.0841 40.6524 31.4124L42.2665 33.3215L43.8806 35.2306C43.6601 35.417 43.4106 35.538 43.1593 35.5998L42.5621 33.1722ZM42.2665 33.3215L40.652 31.4128L35.8212 35.499L37.4358 37.4077L39.0503 39.3164L43.8811 35.2302L42.2665 33.3215ZM37.4358 37.4077L37.9186 34.9548L35.6238 34.503L35.1409 36.9559L34.6581 39.4089L36.9529 39.8606L37.4358 37.4077ZM35.1409 36.9559L37.575 36.3856L37.0822 34.2822L34.6481 34.8525L32.214 35.4228L32.7068 37.5262L35.1409 36.9559ZM34.6481 34.8525L36.4099 36.6262L40.8678 32.1982L39.106 30.4245L37.3442 28.6508L32.8863 33.0788L34.6481 34.8525ZM39.106 30.4245L40.8682 32.1978C41.2337 31.8346 41.5156 31.377 41.6681 30.856L39.2688 30.1536L36.8696 29.4511C36.9629 29.1322 37.1331 28.8605 37.3438 28.6512L39.106 30.4245ZM39.2688 30.1536L41.6681 30.856C41.8211 30.3337 41.834 29.7803 41.7042 29.2501L39.2759 29.8443L36.8475 30.4385C36.7677 30.1125 36.7758 29.7714 36.8696 29.4511L39.2688 30.1536ZM39.2759 29.8443L41.7042 29.2501C41.5748 28.7211 41.3121 28.2496 40.9603 27.8694L39.1254 29.5674L37.2906 31.2655C37.0864 31.0448 36.927 30.7633 36.8475 30.4385L39.2759 29.8443ZM39.1254 29.5674L40.9603 27.8694C40.6095 27.4903 40.1806 27.2126 39.7212 27.0422L38.8519 29.3862L37.9826 31.7302C37.7348 31.6383 37.4937 31.485 37.2906 31.2655L39.1254 29.5674ZM38.8519 29.3862L39.7227 27.0428C37.7539 26.3112 35.6009 26.1422 33.5354 26.551L34.0208 29.0034L34.5062 31.4558C35.6723 31.225 36.8861 31.3228 37.9812 31.7297L38.8519 29.3862ZM34.0208 29.0034L33.5354 26.551C31.4695 26.9599 29.5567 27.9345 28.0576 29.3793L29.7925 31.1794L31.5274 32.9794C32.3066 32.2284 33.3405 31.6866 34.5062 31.4558L34.0208 29.0034ZM29.7925 31.1794L28.0576 29.3793C26.556 30.8265 25.5369 32.683 25.1727 34.7192L27.6336 35.1594L30.0945 35.5996C30.2652 34.6453 30.7506 33.7281 31.5274 32.9794L29.7925 31.1794ZM27.6336 35.1594L25.1727 34.7192C24.808 36.7576 25.1243 38.8429 26.0635 40.694L28.2929 39.5629L30.5224 38.4318C30.0675 37.5351 29.9242 36.5516 30.0945 35.5996L27.6336 35.1594ZM28.2929 39.5629L26.7416 37.6025L19.5207 43.3167L21.0721 45.2771L22.6235 47.2376L29.8443 41.5233L28.2929 39.5629ZM21.0721 45.2771L19.5721 43.2771C19.5015 43.3301 19.4457 43.3773 19.4092 43.4092C19.3761 43.438 19.3473 43.4646 19.3452 43.4666L21.0344 45.3095L22.7237 47.1524C22.7345 47.1425 22.718 47.1578 22.6974 47.1758C22.6732 47.1969 22.6297 47.2339 22.572 47.2772L21.0721 45.2771ZM21.0344 45.3095L19.3456 43.4662C18.7766 43.9875 18.3124 44.6183 17.9911 45.3289L20.269 46.359L22.5469 47.3891C22.5806 47.3147 22.6366 47.2323 22.7233 47.1528L21.0344 45.3095ZM20.269 46.359L17.9911 45.3289C17.6694 46.0403 17.5002 46.8115 17.5 47.5965L20 47.5971L22.5 47.5978C22.5 47.5329 22.5136 47.4627 22.5469 47.3891L20.269 46.359ZM20 47.5971L17.5 47.5965C17.4996 49.1913 18.1924 50.672 19.3436 51.7277L21.0333 49.8852L22.723 48.0426C22.5506 47.8845 22.5 47.7191 22.5 47.5978L20 47.5971ZM21.0333 49.8852L19.3436 51.7277C20.4875 52.7767 21.9961 53.333 23.5284 53.3334L23.529 50.8334L23.5295 48.3334C23.1896 48.3333 22.9027 48.2074 22.723 48.0426L21.0333 49.8852ZM23.529 50.8334L23.5284 53.3334C25.0608 53.3337 26.5696 52.7781 27.714 51.7296L26.0252 49.8863L24.3363 48.0429C24.1565 48.2077 23.8695 48.3334 23.5295 48.3334L23.529 50.8334ZM26.0252 49.8863L27.7144 51.7292C27.7164 51.7274 27.7456 51.7008 27.7772 51.6704C27.8121 51.6368 27.8652 51.5842 27.9255 51.5165L26.0605 49.8518L24.1954 48.187C24.2452 48.1312 24.2871 48.0899 24.3102 48.0676C24.3301 48.0485 24.3469 48.0332 24.3359 48.0433L26.0252 49.8863ZM26.0605 49.8518L27.8803 51.5658L34.1143 44.947L32.2945 43.233L30.4746 41.5189L24.2406 48.1377L26.0605 49.8518ZM32.2945 43.233L31.3141 45.5327C33.2445 46.3556 35.387 46.6226 37.4701 46.3096L37.0986 43.8373L36.727 41.3651C35.5477 41.5423 34.3422 41.3882 33.2748 40.9332L32.2945 43.233ZM37.0986 43.8373L37.4701 46.3096C39.5536 45.9965 41.5124 45.1125 43.0834 43.7429L41.4406 41.8584L39.7978 39.974C38.9732 40.6928 37.9061 41.1879 36.727 41.3651L37.0986 43.8373ZM41.4406 41.8584L43.0834 43.7429C44.6568 42.3713 45.7735 40.5695 46.2479 38.5559L43.8145 37.9827L41.3811 37.4094C41.1576 38.358 40.62 39.2572 39.7978 39.974L41.4406 41.8584ZM43.8145 37.9827L46.2479 38.5559C46.7229 36.5396 46.5224 34.4406 45.6833 32.5432L43.3969 33.5544L41.1105 34.5655C41.5134 35.4766 41.6039 36.4636 41.3811 37.4094L43.8145 37.9827ZM43.3969 33.5544V36.0544H43.3992V33.5544V31.0544H43.3969V33.5544ZM35.7643 42.6378L35.7653 40.1378C34.9974 40.1375 34.2515 39.9584 33.5994 39.6286L32.4709 41.8594L31.3424 44.0902C32.7074 44.7807 34.2275 45.1372 35.7634 45.1378L35.7643 42.6378ZM32.4709 41.8594L33.6024 39.6301C32.9787 39.3135 32.2754 39.211 31.6013 39.3213L32.005 41.7885L32.4087 44.2557C32.0537 44.3138 31.6795 44.2613 31.3393 44.0887L32.4709 41.8594ZM32.005 41.7885L31.6013 39.3213C30.9264 39.4317 30.2749 39.7572 29.774 40.2895L31.5946 42.0028L33.4152 43.7161C33.1261 44.0233 32.7643 44.1975 32.4087 44.2557L32.005 41.7885ZM25.0101 48.986L23.3605 47.1075C23.4038 47.0695 23.4433 47.0494 23.472 47.039C23.5008 47.0286 23.5258 47.0251 23.5473 47.0253L23.5227 49.5252L23.4982 52.0251C24.6399 52.0363 25.7772 51.6395 26.6597 50.8645L25.0101 48.986ZM23.5227 49.5252L23.5473 47.0253C23.5688 47.0255 23.5943 47.0295 23.6239 47.0409C23.6534 47.0523 23.6938 47.0739 23.7376 47.114L22.0483 48.9569L20.3591 50.7998C21.2262 51.5946 22.3564 52.0139 23.4982 52.0251L23.5227 49.5252ZM22.0483 48.9569L23.7376 47.114C23.8286 47.1974 23.9256 47.3578 23.9282 47.5762L21.4283 47.6054L18.9285 47.6347C18.9429 48.868 19.4851 49.9987 20.3591 50.7998L22.0483 48.9569ZM21.4283 47.6054L23.9282 47.5762C23.9307 47.795 23.837 47.9603 23.7449 48.0485L22.0166 46.2421L20.2883 44.4357C19.4301 45.2568 18.9141 46.4009 18.9285 47.6347L21.4283 47.6054ZM22.0166 46.2421L23.5685 48.2021L31.1857 42.1709L29.6338 40.2109L28.0819 38.2509L20.4647 44.2821L22.0166 46.2421ZM29.6338 40.2109L31.1808 42.1748C31.7509 41.7258 32.1761 41.0736 32.3239 40.3046L29.8689 39.8326L27.4139 39.3605C27.5051 38.8859 27.7642 38.5012 28.0868 38.247L29.6338 40.2109ZM29.8689 39.8326L32.3239 40.3046C32.4725 39.5316 32.3193 38.7472 31.9204 38.0966L29.7891 39.4034L27.6578 40.7101C27.4187 40.3202 27.3219 39.839 27.4139 39.3605L29.8689 39.8326ZM29.7891 39.4034L31.9299 38.1122C31.5542 37.4894 31.3945 36.8012 31.4473 36.1259L28.9549 35.9311L26.4625 35.7363C26.3266 37.475 26.7465 39.1992 27.6483 40.6945L29.7891 39.4034ZM28.9549 35.9311L31.4473 36.1259C31.5002 35.4496 31.767 34.7777 32.2481 34.1953L30.3206 32.6032L28.3931 31.0111C27.2803 32.3583 26.5984 33.9984 26.4625 35.7363L28.9549 35.9311ZM30.3206 32.6032L32.2481 34.1953C32.7313 33.6102 33.4132 33.1392 34.2294 32.8693L33.4446 30.4957L32.6597 28.1221C30.9922 28.6734 29.5037 29.6666 28.3931 31.0111L30.3206 32.6032ZM33.4446 30.4957L34.2294 32.8693C35.0464 32.5991 35.9392 32.5507 36.7916 32.7339L37.317 30.2897L37.8423 27.8455C36.124 27.4762 34.3265 27.5709 32.6597 28.1221L33.4446 30.4957ZM37.317 30.2897L35.5545 28.5167L31.6 32.4476L33.3625 34.2207L35.125 35.9937L39.0794 32.0627L37.317 30.2897ZM33.3625 34.2207L31.5983 32.4493C31.2367 32.8095 30.9571 33.2622 30.8041 33.7776L33.2008 34.4889L35.5974 35.2002C35.5038 35.5156 35.3351 35.7844 35.1266 35.992L33.3625 34.2207ZM33.2008 34.4889L30.8041 33.7776C30.6507 34.2944 30.6345 34.8423 30.7586 35.3687L33.1919 34.7953L35.6253 34.2219C35.7016 34.5457 35.6914 34.8835 35.5974 35.2002L33.2008 34.4889ZM33.1919 34.7953L30.7576 35.3648L31.4222 38.2057L33.8565 37.6363L36.2908 37.0668L35.6262 34.2259L33.1919 34.7953ZM33.8565 37.6363L31.4221 38.2052C31.5701 38.8386 31.9077 39.3881 32.3583 39.8011L34.0475 37.9582L35.7368 36.1152C35.995 36.3519 36.1999 36.6778 36.2909 37.0673L33.8565 37.6363ZM34.0475 37.9582L32.3583 39.8011C32.8068 40.2122 33.3514 40.4754 33.917 40.5864L34.3987 38.1333L34.8805 35.6801C35.18 35.739 35.4807 35.8805 35.7368 36.1152L34.0475 37.9582ZM34.3987 38.1333L33.9166 40.5864L37.016 41.1955L37.4981 38.7424L37.9802 36.2894L34.8809 35.6802L34.3987 38.1333ZM37.4981 38.7424L37.0126 41.1948C37.4833 41.2881 37.9703 41.2765 38.4372 41.1601L37.8323 38.7343L37.2275 36.3086C37.4762 36.2466 37.7339 36.2406 37.9836 36.29L37.4981 38.7424ZM37.8323 38.7343L38.4372 41.1601C38.9044 41.0436 39.3521 40.8217 39.7371 40.4969L38.125 38.5861L36.513 36.6753C36.7315 36.4909 36.9786 36.3707 37.2275 36.3086L37.8323 38.7343ZM38.125 38.5861L39.7399 40.4946L44.0237 36.8698L42.4088 34.9614L40.794 33.0529L36.5102 36.6776L38.125 38.5861ZM42.4088 34.9614L39.9855 35.5756C40.1175 36.0963 40.1195 36.6346 39.9916 37.1558L42.4196 37.7515L44.8476 38.3472C45.1707 37.0305 45.1653 35.6613 44.8322 34.3471L42.4088 34.9614ZM42.4196 37.7515L39.9916 37.1558C39.8635 37.6779 39.6045 38.1844 39.2165 38.6326L41.1067 40.2687L42.997 41.9049C43.8863 40.8774 44.5248 39.6629 44.8476 38.3472L42.4196 37.7515ZM41.1067 40.2687L39.2165 38.6326C38.8277 39.0818 38.3188 39.461 37.7175 39.7277L38.731 42.013L39.7444 44.2984C40.9932 43.7446 42.1084 42.9314 42.997 41.9049L41.1067 40.2687ZM38.731 42.013L37.7175 39.7277C37.1159 39.9944 36.4467 40.1371 35.7618 40.1378L35.7643 42.6378L35.7668 45.1378C37.1371 45.1364 38.496 44.852 39.7444 44.2984L38.731 42.013ZM31.5946 42.0028L29.7757 40.2877L26.4834 43.7793L28.3024 45.4944L30.1213 47.2095L33.4135 43.7179L31.5946 42.0028ZM28.3024 45.4944L26.4834 43.7793L23.1912 47.2709L25.0101 48.986L26.829 50.7011L30.1213 47.2095L28.3024 45.4944Z" fill="white" mask="url(#path-2-inside-1_4038_8189)"/>
<path d="M39.1916 21.1759C39.3127 21.1474 39.4397 21.1483 39.5607 21.1774C40.7635 21.4724 41.9228 21.9255 43.0064 22.5248C43.1163 22.5844 43.2104 22.6696 43.2815 22.7725C43.3525 22.8754 43.3982 22.9935 43.415 23.1175L43.8392 26.3539C44.0253 26.5209 44.2052 26.695 44.3793 26.8746L47.6296 27.1713C47.754 27.1833 47.8745 27.2238 47.9801 27.2908C48.0856 27.3578 48.1736 27.4494 48.2374 27.5568C48.88 28.6175 49.3785 29.7593 49.7197 30.9515C49.7541 31.0712 49.76 31.1976 49.7368 31.3199C49.7136 31.4422 49.662 31.5577 49.5862 31.6564L47.6023 34.2358C47.6151 34.4861 47.6199 34.7383 47.6168 34.9889L49.7021 37.4976C49.7815 37.5932 49.8371 37.7061 49.865 37.8272C49.8929 37.9484 49.8923 38.0746 49.8626 38.1954C49.5678 39.398 49.1149 40.5567 48.5152 41.6401C48.4556 41.7501 48.3706 41.845 48.2676 41.9161C48.1645 41.9872 48.0456 42.0329 47.9216 42.0496L44.6851 42.4728C44.518 42.659 44.3441 42.8398 44.1644 43.0139L43.8678 46.2623C43.8558 46.3869 43.8144 46.5071 43.7473 46.6127C43.6802 46.7184 43.5889 46.8072 43.4812 46.871C42.4224 47.5129 41.2825 48.0108 40.0924 48.3524C40.0262 48.371 39.9577 48.3822 39.889 48.3837C39.7084 48.3874 39.5309 48.3288 39.3875 48.2189L36.8004 46.2291C36.5502 46.2419 36.2978 46.2467 36.0473 46.2436L33.5533 48.3241C33.4577 48.4034 33.3447 48.4592 33.2237 48.4871C33.1024 48.5149 32.9753 48.5144 32.8545 48.4847C31.8433 48.2366 30.8641 47.8752 29.9337 47.4107L31.1916 46.2475C31.7254 46.4814 32.2748 46.6787 32.8366 46.836L35.2597 44.8173C35.4112 44.6915 35.6046 44.6257 35.8014 44.6338C36.1957 44.6488 36.5909 44.6417 36.9843 44.6116L37.0322 44.6101C37.2128 44.6064 37.3892 44.665 37.5326 44.7749L40.0335 46.6975C40.8258 46.4439 41.5918 46.1114 42.3182 45.7059L42.606 42.5659C42.6248 42.3697 42.7163 42.1875 42.8617 42.0546C43.1518 41.7869 43.4258 41.5019 43.6822 41.2018C43.8094 41.0512 43.9885 40.9526 44.1838 40.9261L47.3127 40.5176L47.3058 40.5175C47.6835 39.777 47.9858 39.0002 48.2092 38.1996L46.1915 35.7765C46.0657 35.6249 45.9998 35.4316 46.008 35.2348C46.0229 34.8407 46.0159 34.4461 45.9858 34.0529C45.9699 33.8566 46.0273 33.6608 46.1471 33.5045L48.0707 31.0037C47.8165 30.2147 47.484 29.453 47.079 28.7297L43.939 28.4409C43.7428 28.422 43.5596 28.3316 43.4267 28.1861C43.1589 27.8961 42.8741 27.622 42.5739 27.3657C42.4234 27.2385 42.3256 27.0594 42.2992 26.8641L41.8897 23.7362C41.1493 23.3577 40.3726 23.054 39.5718 22.8299L37.1487 24.8476C36.9972 24.9734 36.8037 25.0382 36.607 25.0301C36.2126 25.0152 35.8165 25.0232 35.4231 25.0533C35.2268 25.069 35.031 25.0109 34.8748 24.891L32.3739 22.9684C31.584 23.2223 30.8212 23.555 30.0971 23.96L29.8082 27.1001C29.7893 27.2961 29.6989 27.4785 29.5535 27.6114C29.2633 27.8791 28.9884 28.164 28.7321 28.4642C28.6048 28.6147 28.4258 28.7125 28.2305 28.7389L25.1045 29.1484C24.7259 29.8887 24.4224 30.6656 24.1982 31.4663L26.2169 33.8894C26.3427 34.041 26.4076 34.2343 26.3994 34.4311C26.3845 34.8252 26.3925 35.2198 26.4226 35.613C26.4385 35.8095 26.3803 36.005 26.2603 36.1614L24.3377 38.6622C24.5687 39.3807 24.8644 40.0768 25.2208 40.7418L24.02 41.8518C23.4507 40.8662 23.002 39.8148 22.6876 38.7202C22.6534 38.6008 22.6484 38.4749 22.6715 38.3528C22.6947 38.2306 22.7463 38.1151 22.8221 38.0163L24.8129 35.435C24.8001 35.1847 24.7943 34.9326 24.7974 34.6819L22.7101 32.1752C22.6319 32.0804 22.5769 31.9682 22.5491 31.8485C22.5213 31.7288 22.5211 31.6038 22.5495 31.4842C22.8446 30.2818 23.2985 29.1239 23.8979 28.0405C23.9575 27.9306 24.0417 27.8356 24.1446 27.7645C24.2475 27.6934 24.3666 27.6478 24.4906 27.6309L27.7291 27.2C27.8961 27.0147 28.0691 26.8338 28.2487 26.6589L28.5405 23.4104C28.5525 23.2859 28.594 23.1656 28.661 23.06C28.7281 22.9544 28.8195 22.8655 28.9271 22.8017C29.988 22.1592 31.1303 21.6605 32.3228 21.3194C32.4421 21.2852 32.5682 21.2793 32.6901 21.3023C32.8123 21.3254 32.928 21.3773 33.0266 21.4529L35.6021 23.4436C35.8524 23.4308 36.1045 23.426 36.3552 23.4291L38.8619 21.3418C38.9571 21.2617 39.0705 21.2046 39.1916 21.1759Z" fill="white"/>
</g>
<defs>
<filter id="filter0_d_4038_8189" x="18" y="19.155" width="33.8848" height="33.6783" filterUnits="userSpaceOnUse" color-interpolation-filters="sRGB">
<feFlood flood-opacity="0" result="BackgroundImageFix"/>
<feColorMatrix in="SourceAlpha" type="matrix" values="0 0 0 0 0 0 0 0 0 0 0 0 0 0 0 0 0 0 127 0" result="hardAlpha"/>
<feOffset/>
<feGaussianBlur stdDeviation="1"/>
<feComposite in2="hardAlpha" operator="out"/>
<feColorMatrix type="matrix" values="0 0 0 0 0 0 0 0 0 0 0 0 0 0 0 0 0 0 0.15 0"/>
<feBlend mode="normal" in2="BackgroundImageFix" result="effect1_dropShadow_4038_8189"/>
<feBlend mode="normal" in="SourceGraphic" in2="effect1_dropShadow_4038_8189" result="shape"/>
</filter>
</defs>
</svg>
