<svg width="70" height="70" viewBox="0 0 70 70" fill="none" xmlns="http://www.w3.org/2000/svg">
<rect x="0.5" y="0.5" width="69" height="69" rx="34.5" fill="#8C0404" stroke="#8C0404"/>
<g filter="url(#filter0_d_2329_7069)">
<mask id="path-2-inside-1_2329_7069" fill="white">
<path d="M43.3992 32.5545C43.3564 32.4575 43.2886 32.3715 43.2015 32.3038C43.1145 32.2361 43.0108 32.1888 42.8995 32.1659C42.7881 32.143 42.6723 32.1452 42.5621 32.1723C42.4518 32.1994 42.3504 32.2507 42.2665 32.3216L37.4358 36.4078L35.1409 35.9561L34.6481 33.8526L39.106 29.4246C39.1834 29.3477 39.2393 29.2547 39.2688 29.1537C39.2984 29.0526 39.3008 28.9465 39.2759 28.8444C39.2509 28.7423 39.1993 28.6473 39.1254 28.5675C39.0516 28.4878 38.9577 28.4256 38.8519 28.3863C37.32 27.8171 35.6366 27.6837 34.0208 28.0035C32.405 28.3233 30.9317 29.0816 29.7925 30.1795C28.6533 31.2774 27.901 32.6643 27.6336 34.1595C27.3661 35.6547 27.5959 37.1891 28.2929 38.563L21.0721 44.2773C21.0591 44.287 21.0474 44.2978 21.0344 44.3096C20.7066 44.61 20.4465 44.9666 20.269 45.3591C20.0915 45.7516 20.0001 46.1723 20 46.5972C19.9998 47.4553 20.3715 48.2784 21.0333 48.8853C21.6951 49.4922 22.5928 49.8333 23.529 49.8335C24.4651 49.8337 25.3631 49.493 26.0252 48.8864C26.0381 48.8745 26.0499 48.8637 26.0605 48.8519L32.2945 42.2331C33.7933 42.872 35.4673 43.0826 37.0986 42.8375C38.7298 42.5923 40.2428 41.9028 41.4406 40.8586C42.6384 39.8144 43.4656 38.4639 43.8145 36.9828C44.1634 35.5017 44.0179 33.9587 43.3969 32.5545H43.3992ZM35.7643 41.6379C34.6124 41.6375 33.4794 41.3697 32.4709 40.8595C32.3291 40.7875 32.1646 40.7625 32.005 40.7886C31.8454 40.8147 31.7005 40.8904 31.5946 41.0029L28.3024 44.4945L25.0101 47.9861C24.6103 48.3372 24.0764 48.5308 23.5227 48.5253C22.9691 48.5199 22.4398 48.3159 22.0483 47.957C21.6568 47.5982 21.4343 47.113 21.4283 46.6056C21.4224 46.0981 21.6336 45.6087 22.0166 45.2422L29.6338 39.211C29.7575 39.1136 29.8406 38.9799 29.8689 38.8327C29.8972 38.6855 29.869 38.5338 29.7891 38.4035C29.1504 37.3444 28.8606 36.1382 28.9549 34.9312C29.0493 33.7241 29.5237 32.5681 30.3206 31.6033C31.1175 30.6385 32.2027 29.9064 33.4446 29.4958C34.6864 29.0851 36.0316 29.0136 37.317 29.2898L33.3625 33.2208C33.2859 33.297 33.2304 33.389 33.2008 33.4891C33.1711 33.5891 33.1681 33.6941 33.1919 33.7954L33.8565 36.6364C33.885 36.7583 33.9513 36.8701 34.0475 36.9583C34.1437 37.0465 34.2657 37.1073 34.3987 37.1334L37.4981 37.7426C37.6086 37.7645 37.7232 37.7617 37.8323 37.7345C37.9415 37.7073 38.0418 37.6564 38.125 37.5862L42.4088 33.9615C42.6414 34.8789 42.6451 35.8327 42.4196 36.7516C42.1942 37.6705 41.7454 38.531 41.1067 39.2689C40.4681 40.0067 39.656 40.603 38.731 41.0132C37.806 41.4233 36.7919 41.6369 35.7643 41.6379Z"/>
</mask>
<path d="M43.3992 32.5545C43.3564 32.4575 43.2886 32.3715 43.2015 32.3038C43.1145 32.2361 43.0108 32.1888 42.8995 32.1659C42.7881 32.143 42.6723 32.1452 42.5621 32.1723C42.4518 32.1994 42.3504 32.2507 42.2665 32.3216L37.4358 36.4078L35.1409 35.9561L34.6481 33.8526L39.106 29.4246C39.1834 29.3477 39.2393 29.2547 39.2688 29.1537C39.2984 29.0526 39.3008 28.9465 39.2759 28.8444C39.2509 28.7423 39.1993 28.6473 39.1254 28.5675C39.0516 28.4878 38.9577 28.4256 38.8519 28.3863C37.32 27.8171 35.6366 27.6837 34.0208 28.0035C32.405 28.3233 30.9317 29.0816 29.7925 30.1795C28.6533 31.2774 27.901 32.6643 27.6336 34.1595C27.3661 35.6547 27.5959 37.1891 28.2929 38.563L21.0721 44.2773C21.0591 44.287 21.0474 44.2978 21.0344 44.3096C20.7066 44.61 20.4465 44.9666 20.269 45.3591C20.0915 45.7516 20.0001 46.1723 20 46.5972C19.9998 47.4553 20.3715 48.2784 21.0333 48.8853C21.6951 49.4922 22.5928 49.8333 23.529 49.8335C24.4651 49.8337 25.3631 49.493 26.0252 48.8864C26.0381 48.8745 26.0499 48.8637 26.0605 48.8519L32.2945 42.2331C33.7933 42.872 35.4673 43.0826 37.0986 42.8375C38.7298 42.5923 40.2428 41.9028 41.4406 40.8586C42.6384 39.8144 43.4656 38.4639 43.8145 36.9828C44.1634 35.5017 44.0179 33.9587 43.3969 32.5545H43.3992ZM35.7643 41.6379C34.6124 41.6375 33.4794 41.3697 32.4709 40.8595C32.3291 40.7875 32.1646 40.7625 32.005 40.7886C31.8454 40.8147 31.7005 40.8904 31.5946 41.0029L28.3024 44.4945L25.0101 47.9861C24.6103 48.3372 24.0764 48.5308 23.5227 48.5253C22.9691 48.5199 22.4398 48.3159 22.0483 47.957C21.6568 47.5982 21.4343 47.113 21.4283 46.6056C21.4224 46.0981 21.6336 45.6087 22.0166 45.2422L29.6338 39.211C29.7575 39.1136 29.8406 38.9799 29.8689 38.8327C29.8972 38.6855 29.869 38.5338 29.7891 38.4035C29.1504 37.3444 28.8606 36.1382 28.9549 34.9312C29.0493 33.7241 29.5237 32.5681 30.3206 31.6033C31.1175 30.6385 32.2027 29.9064 33.4446 29.4958C34.6864 29.0851 36.0316 29.0136 37.317 29.2898L33.3625 33.2208C33.2859 33.297 33.2304 33.389 33.2008 33.4891C33.1711 33.5891 33.1681 33.6941 33.1919 33.7954L33.8565 36.6364C33.885 36.7583 33.9513 36.8701 34.0475 36.9583C34.1437 37.0465 34.2657 37.1073 34.3987 37.1334L37.4981 37.7426C37.6086 37.7645 37.7232 37.7617 37.8323 37.7345C37.9415 37.7073 38.0418 37.6564 38.125 37.5862L42.4088 33.9615C42.6414 34.8789 42.6451 35.8327 42.4196 36.7516C42.1942 37.6705 41.7454 38.531 41.1067 39.2689C40.4681 40.0067 39.656 40.603 38.731 41.0132C37.806 41.4233 36.7919 41.6369 35.7643 41.6379Z" fill="white"/>
<path d="M43.3992 32.5545V35.0545H47.2354L45.6863 31.545L43.3992 32.5545ZM42.2665 32.3216L40.6524 30.4125L40.652 30.4129L42.2665 32.3216ZM37.4358 36.4078L36.9529 38.8607L38.1324 39.0929L39.0503 38.3165L37.4358 36.4078ZM35.1409 35.9561L32.7068 36.5264L33.0749 38.0973L34.6581 38.409L35.1409 35.9561ZM34.6481 33.8526L32.8863 32.0789L31.8954 33.0631L32.214 34.4229L34.6481 33.8526ZM39.106 29.4246L40.8678 31.1983L40.8682 31.1979L39.106 29.4246ZM38.8519 28.3863L37.9811 30.7298L37.9826 30.7303L38.8519 28.3863ZM28.2929 38.563L29.8443 40.5235L31.4473 39.2549L30.5224 37.4319L28.2929 38.563ZM21.0721 44.2773L22.572 46.2773L22.598 46.2578L22.6235 46.2377L21.0721 44.2773ZM21.0344 44.3096L22.7233 46.1529L22.7237 46.1525L21.0344 44.3096ZM20 46.5972L17.5 46.5966L20 46.5972ZM26.0252 48.8864L27.714 50.7297L27.7144 50.7293L26.0252 48.8864ZM26.0605 48.8519L24.2406 47.1378L24.2177 47.1621L24.1954 47.1871L26.0605 48.8519ZM32.2945 42.2331L33.2748 39.9333L31.6704 39.2494L30.4746 40.519L32.2945 42.2331ZM43.3969 32.5545V30.0545H39.5577L41.1105 33.5656L43.3969 32.5545ZM35.7643 41.6379L35.7634 44.1379L35.7668 44.1379L35.7643 41.6379ZM32.4709 40.8595L31.3393 43.0888L31.3424 43.0903L32.4709 40.8595ZM31.5946 41.0029L33.4135 42.718L33.4152 42.7162L31.5946 41.0029ZM25.0101 47.9861L26.6597 49.8646L26.7482 49.7869L26.829 49.7012L25.0101 47.9861ZM22.0166 45.2422L20.4647 43.2822L20.3729 43.3549L20.2883 43.4358L22.0166 45.2422ZM29.6338 39.211L28.0868 37.2471L28.0819 37.251L29.6338 39.211ZM29.7891 38.4035L27.6483 39.6946L27.653 39.7024L27.6578 39.7102L29.7891 38.4035ZM37.317 29.2898L39.0794 31.0629L42.3478 27.814L37.8423 26.8456L37.317 29.2898ZM33.3625 33.2208L31.6 31.4478L31.5983 31.4494L33.3625 33.2208ZM33.1919 33.7954L35.6262 33.226L35.6253 33.222L33.1919 33.7954ZM33.8565 36.6364L36.2909 36.0674L36.2908 36.0669L33.8565 36.6364ZM34.3987 37.1334L34.8809 34.6803L34.8805 34.6803L34.3987 37.1334ZM37.4981 37.7426L37.9836 35.2902L37.9802 35.2895L37.4981 37.7426ZM38.125 37.5862L39.7371 39.4971L39.7399 39.4947L38.125 37.5862ZM42.4088 33.9615L44.8322 33.3472L43.8489 29.4681L40.794 32.053L42.4088 33.9615ZM28.3024 44.4945L26.4834 42.7794H26.4834L28.3024 44.4945ZM43.3992 32.5545L45.6863 31.545C45.4695 31.0538 45.1364 30.6414 44.7361 30.3302L43.2015 32.3038L41.667 34.2774C41.4408 34.1015 41.2433 33.8612 41.1121 33.564L43.3992 32.5545ZM43.2015 32.3038L44.7361 30.3302C44.3367 30.0197 43.8778 29.8147 43.4029 29.7171L42.8995 32.1659L42.396 34.6147C42.1439 34.5629 41.8923 34.4526 41.667 34.2774L43.2015 32.3038ZM42.8995 32.1659L43.4029 29.7171C42.9282 29.6195 42.4365 29.6287 41.9649 29.7447L42.5621 32.1723L43.1593 34.6C42.9082 34.6617 42.6479 34.6665 42.396 34.6147L42.8995 32.1659ZM42.5621 32.1723L41.9649 29.7447C41.4931 29.8608 41.0407 30.0842 40.6524 30.4125L42.2665 32.3216L43.8806 34.2307C43.6601 34.4171 43.4106 34.5381 43.1593 34.6L42.5621 32.1723ZM42.2665 32.3216L40.652 30.4129L35.8212 34.4991L37.4358 36.4078L39.0503 38.3165L43.8811 34.2303L42.2665 32.3216ZM37.4358 36.4078L37.9186 33.9549L35.6238 33.5031L35.1409 35.9561L34.6581 38.409L36.9529 38.8607L37.4358 36.4078ZM35.1409 35.9561L37.575 35.3858L37.0822 33.2823L34.6481 33.8526L32.214 34.4229L32.7068 36.5264L35.1409 35.9561ZM34.6481 33.8526L36.4099 35.6263L40.8678 31.1983L39.106 29.4246L37.3442 27.6509L32.8863 32.0789L34.6481 33.8526ZM39.106 29.4246L40.8682 31.1979C41.2337 30.8347 41.5156 30.3772 41.6681 29.8562L39.2688 29.1537L36.8696 28.4512C36.9629 28.1323 37.1331 27.8607 37.3438 27.6513L39.106 29.4246ZM39.2688 29.1537L41.6681 29.8562C41.8211 29.3338 41.834 28.7804 41.7042 28.2502L39.2759 28.8444L36.8475 29.4387C36.7677 29.1126 36.7758 28.7715 36.8696 28.4512L39.2688 29.1537ZM39.2759 28.8444L41.7042 28.2502C41.5748 27.7213 41.3121 27.2497 40.9603 26.8695L39.1254 28.5675L37.2906 30.2656C37.0864 30.0449 36.927 29.7634 36.8475 29.4387L39.2759 28.8444ZM39.1254 28.5675L40.9603 26.8695C40.6095 26.4904 40.1806 26.2127 39.7212 26.0423L38.8519 28.3863L37.9826 30.7303C37.7348 30.6384 37.4937 30.4851 37.2906 30.2656L39.1254 28.5675ZM38.8519 28.3863L39.7227 26.0429C37.7539 25.3113 35.6009 25.1423 33.5354 25.5511L34.0208 28.0035L34.5062 30.456C35.6723 30.2251 36.8861 30.3229 37.9812 30.7298L38.8519 28.3863ZM34.0208 28.0035L33.5354 25.5511C31.4695 25.96 29.5567 26.9346 28.0576 28.3795L29.7925 30.1795L31.5274 31.9796C32.3066 31.2285 33.3405 30.6867 34.5062 30.456L34.0208 28.0035ZM29.7925 30.1795L28.0576 28.3795C26.556 29.8267 25.5369 31.6831 25.1727 33.7193L27.6336 34.1595L30.0945 34.5997C30.2652 33.6455 30.7506 32.7282 31.5274 31.9796L29.7925 30.1795ZM27.6336 34.1595L25.1727 33.7193C24.808 35.7577 25.1243 37.843 26.0635 39.6942L28.2929 38.563L30.5224 37.4319C30.0675 36.5353 29.9242 35.5517 30.0945 34.5997L27.6336 34.1595ZM28.2929 38.563L26.7416 36.6026L19.5207 42.3168L21.0721 44.2773L22.6235 46.2377L29.8443 40.5235L28.2929 38.563ZM21.0721 44.2773L19.5721 42.2772C19.5015 42.3302 19.4457 42.3774 19.4092 42.4093C19.3761 42.4381 19.3473 42.4647 19.3452 42.4667L21.0344 44.3096L22.7237 46.1525C22.7345 46.1426 22.718 46.1579 22.6974 46.176C22.6732 46.1971 22.6297 46.234 22.572 46.2773L21.0721 44.2773ZM21.0344 44.3096L19.3456 42.4663C18.7766 42.9876 18.3124 43.6184 17.9911 44.3291L20.269 45.3591L22.5469 46.3892C22.5806 46.3148 22.6366 46.2324 22.7233 46.1529L21.0344 44.3096ZM20.269 45.3591L17.9911 44.3291C17.6694 45.0404 17.5002 45.8116 17.5 46.5966L20 46.5972L22.5 46.5979C22.5 46.533 22.5136 46.4628 22.5469 46.3892L20.269 45.3591ZM20 46.5972L17.5 46.5966C17.4996 48.1915 18.1924 49.6721 19.3436 50.7278L21.0333 48.8853L22.723 47.0428C22.5506 46.8847 22.5 46.7192 22.5 46.5979L20 46.5972ZM21.0333 48.8853L19.3436 50.7278C20.4875 51.7769 21.9961 52.3332 23.5284 52.3335L23.529 49.8335L23.5295 47.3335C23.1896 47.3334 22.9027 47.2076 22.723 47.0428L21.0333 48.8853ZM23.529 49.8335L23.5284 52.3335C25.0608 52.3338 26.5696 51.7782 27.714 50.7297L26.0252 48.8864L24.3363 47.0431C24.1565 47.2078 23.8695 47.3336 23.5295 47.3335L23.529 49.8335ZM26.0252 48.8864L27.7144 50.7293C27.7164 50.7275 27.7456 50.701 27.7772 50.6705C27.8121 50.6369 27.8652 50.5843 27.9255 50.5167L26.0605 48.8519L24.1954 47.1871C24.2452 47.1313 24.2871 47.09 24.3102 47.0678C24.3301 47.0486 24.3469 47.0334 24.3359 47.0435L26.0252 48.8864ZM26.0605 48.8519L27.8803 50.566L34.1143 43.9472L32.2945 42.2331L30.4746 40.519L24.2406 47.1378L26.0605 48.8519ZM32.2945 42.2331L31.3141 44.5329C33.2445 45.3557 35.387 45.6228 37.4701 45.3097L37.0986 42.8375L36.727 40.3652C35.5477 40.5425 34.3422 40.3883 33.2748 39.9333L32.2945 42.2331ZM37.0986 42.8375L37.4701 45.3097C39.5536 44.9966 41.5124 44.1126 43.0834 42.743L41.4406 40.8586L39.7978 38.9741C38.9732 39.6929 37.9061 40.188 36.727 40.3652L37.0986 42.8375ZM41.4406 40.8586L43.0834 42.743C44.6568 41.3714 45.7735 39.5696 46.2479 37.5561L43.8145 36.9828L41.3811 36.4095C41.1576 37.3581 40.62 38.2573 39.7978 38.9741L41.4406 40.8586ZM43.8145 36.9828L46.2479 37.5561C46.7229 35.5398 46.5224 33.4407 45.6833 31.5433L43.3969 32.5545L41.1105 33.5656C41.5134 34.4767 41.6039 35.4637 41.3811 36.4095L43.8145 36.9828ZM43.3969 32.5545V35.0545H43.3992V32.5545V30.0545H43.3969V32.5545ZM35.7643 41.6379L35.7653 39.1379C34.9974 39.1376 34.2515 38.9586 33.5994 38.6287L32.4709 40.8595L31.3424 43.0903C32.7074 43.7808 34.2275 44.1373 35.7634 44.1379L35.7643 41.6379ZM32.4709 40.8595L33.6024 38.6303C32.9787 38.3136 32.2754 38.2111 31.6013 38.3214L32.005 40.7886L32.4087 43.2558C32.0537 43.3139 31.6795 43.2614 31.3393 43.0888L32.4709 40.8595ZM32.005 40.7886L31.6013 38.3214C30.9264 38.4318 30.2749 38.7574 29.774 39.2896L31.5946 41.0029L33.4152 42.7162C33.1261 43.0234 32.7643 43.1976 32.4087 43.2558L32.005 40.7886ZM25.0101 47.9861L23.3605 46.1076C23.4038 46.0696 23.4433 46.0495 23.472 46.0391C23.5008 46.0287 23.5258 46.0252 23.5473 46.0255L23.5227 48.5253L23.4982 51.0252C24.6399 51.0364 25.7772 50.6396 26.6597 49.8646L25.0101 47.9861ZM23.5227 48.5253L23.5473 46.0255C23.5688 46.0257 23.5943 46.0296 23.6239 46.041C23.6534 46.0524 23.6938 46.074 23.7376 46.1141L22.0483 47.957L20.3591 49.8C21.2262 50.5948 22.3564 51.014 23.4982 51.0252L23.5227 48.5253ZM22.0483 47.957L23.7376 46.1141C23.8286 46.1975 23.9256 46.3579 23.9282 46.5763L21.4283 46.6056L18.9285 46.6348C18.9429 47.8681 19.4851 48.9988 20.3591 49.8L22.0483 47.957ZM21.4283 46.6056L23.9282 46.5763C23.9307 46.7951 23.837 46.9604 23.7449 47.0486L22.0166 45.2422L20.2883 43.4358C19.4301 44.2569 18.9141 45.401 18.9285 46.6348L21.4283 46.6056ZM22.0166 45.2422L23.5685 47.2022L31.1857 41.171L29.6338 39.211L28.0819 37.251L20.4647 43.2822L22.0166 45.2422ZM29.6338 39.211L31.1808 41.1749C31.7509 40.7259 32.1761 40.0737 32.3239 39.3047L29.8689 38.8327L27.4139 38.3607C27.5051 37.8861 27.7642 37.5013 28.0868 37.2471L29.6338 39.211ZM29.8689 38.8327L32.3239 39.3047C32.4725 38.5318 32.3193 37.7473 31.9204 37.0968L29.7891 38.4035L27.6578 39.7102C27.4187 39.3203 27.3219 38.8392 27.4139 38.3607L29.8689 38.8327ZM29.7891 38.4035L31.9299 37.1123C31.5542 36.4895 31.3945 35.8013 31.4473 35.126L28.9549 34.9312L26.4625 34.7364C26.3266 36.4751 26.7465 38.1993 27.6483 39.6946L29.7891 38.4035ZM28.9549 34.9312L31.4473 35.126C31.5002 34.4498 31.767 33.7778 32.2481 33.1954L30.3206 31.6033L28.3931 30.0112C27.2803 31.3584 26.5984 32.9985 26.4625 34.7364L28.9549 34.9312ZM30.3206 31.6033L32.2481 33.1954C32.7313 32.6104 33.4132 32.1393 34.2294 31.8694L33.4446 29.4958L32.6597 27.1222C30.9922 27.6736 29.5037 28.6667 28.3931 30.0112L30.3206 31.6033ZM33.4446 29.4958L34.2294 31.8694C35.0464 31.5992 35.9392 31.5508 36.7916 31.734L37.317 29.2898L37.8423 26.8456C36.124 26.4764 34.3265 26.571 32.6597 27.1222L33.4446 29.4958ZM37.317 29.2898L35.5545 27.5168L31.6 31.4478L33.3625 33.2208L35.125 34.9938L39.0794 31.0629L37.317 29.2898ZM33.3625 33.2208L31.5983 31.4494C31.2367 31.8096 30.9571 32.2624 30.8041 32.7777L33.2008 33.4891L35.5974 34.2004C35.5038 34.5157 35.3351 34.7845 35.1266 34.9922L33.3625 33.2208ZM33.2008 33.4891L30.8041 32.7777C30.6507 33.2945 30.6345 33.8424 30.7586 34.3688L33.1919 33.7954L35.6253 33.222C35.7016 33.5459 35.6914 33.8836 35.5974 34.2004L33.2008 33.4891ZM33.1919 33.7954L30.7576 34.3649L31.4222 37.2058L33.8565 36.6364L36.2908 36.0669L35.6262 33.226L33.1919 33.7954ZM33.8565 36.6364L31.4221 37.2053C31.5701 37.8387 31.9077 38.3882 32.3583 38.8012L34.0475 36.9583L35.7368 35.1154C35.995 35.352 36.1999 35.678 36.2909 36.0674L33.8565 36.6364ZM34.0475 36.9583L32.3583 38.8012C32.8068 39.2123 33.3514 39.4755 33.917 39.5866L34.3987 37.1334L34.8805 34.6803C35.18 34.7391 35.4807 34.8806 35.7368 35.1154L34.0475 36.9583ZM34.3987 37.1334L33.9166 39.5865L37.016 40.1956L37.4981 37.7426L37.9802 35.2895L34.8809 34.6803L34.3987 37.1334ZM37.4981 37.7426L37.0126 40.195C37.4833 40.2882 37.9703 40.2766 38.4372 40.1602L37.8323 37.7345L37.2275 35.3087C37.4762 35.2467 37.7339 35.2407 37.9836 35.2902L37.4981 37.7426ZM37.8323 37.7345L38.4372 40.1602C38.9044 40.0437 39.3521 39.8218 39.7371 39.4971L38.125 37.5862L36.513 35.6754C36.7315 35.491 36.9786 35.3708 37.2275 35.3087L37.8323 37.7345ZM38.125 37.5862L39.7399 39.4947L44.0237 35.8699L42.4088 33.9615L40.794 32.053L36.5102 35.6778L38.125 37.5862ZM42.4088 33.9615L39.9855 34.5758C40.1175 35.0965 40.1195 35.6347 39.9916 36.1559L42.4196 36.7516L44.8476 37.3473C45.1707 36.0306 45.1653 34.6614 44.8322 33.3472L42.4088 33.9615ZM42.4196 36.7516L39.9916 36.1559C39.8635 36.678 39.6045 37.1845 39.2165 37.6327L41.1067 39.2689L42.997 40.905C43.8863 39.8775 44.5248 38.663 44.8476 37.3473L42.4196 36.7516ZM41.1067 39.2689L39.2165 37.6327C38.8277 38.0819 38.3188 38.4612 37.7175 38.7278L38.731 41.0132L39.7444 43.2985C40.9932 42.7448 42.1084 41.9315 42.997 40.905L41.1067 39.2689ZM38.731 41.0132L37.7175 38.7278C37.1159 38.9946 36.4467 39.1373 35.7618 39.1379L35.7643 41.6379L35.7668 44.1379C37.1371 44.1366 38.496 43.8521 39.7444 43.2985L38.731 41.0132ZM31.5946 41.0029L29.7757 39.2878L26.4834 42.7794L28.3024 44.4945L30.1213 46.2096L33.4135 42.718L31.5946 41.0029ZM28.3024 44.4945L26.4834 42.7794L23.1912 46.271L25.0101 47.9861L26.829 49.7012L30.1213 46.2096L28.3024 44.4945Z" fill="white" mask="url(#path-2-inside-1_2329_7069)"/>
<path fill-rule="evenodd" clip-rule="evenodd" d="M39.1921 20.1759C39.3132 20.1474 39.4402 20.1483 39.5612 20.1774C40.7639 20.4724 41.9232 20.9255 43.0069 21.5248C43.1168 21.5844 43.2109 21.6696 43.282 21.7725C43.353 21.8754 43.3987 21.9935 43.4155 22.1175L43.8396 25.3539C44.0258 25.5209 44.2057 25.695 44.3798 25.8746L47.6301 26.1713C47.7545 26.1833 47.875 26.2238 47.9806 26.2908C48.0861 26.3578 48.174 26.4494 48.2379 26.5568C48.8805 27.6175 49.3789 28.7593 49.7202 29.9515C49.7546 30.0712 49.7605 30.1976 49.7373 30.3199C49.7141 30.4422 49.6625 30.5577 49.5867 30.6564L47.6028 33.2358C47.6156 33.4861 47.6204 33.7383 47.6173 33.9889L49.7026 36.4976C49.7819 36.5932 49.8376 36.7061 49.8655 36.8272C49.8934 36.9484 49.8927 37.0746 49.8631 37.1954C49.5683 38.398 49.1154 39.5567 48.5157 40.6401C48.4561 40.7501 48.371 40.845 48.268 40.9161C48.165 40.9872 48.0461 41.0329 47.9221 41.0496L44.6856 41.4728C44.5185 41.659 44.3446 41.8398 44.1649 42.0139L43.8682 45.2623C43.8563 45.3869 43.8149 45.5071 43.7478 45.6127C43.6807 45.7184 43.5894 45.8072 43.4817 45.871C42.4229 46.5129 41.283 47.0108 40.0929 47.3524C40.0267 47.371 39.9581 47.3822 39.8895 47.3837C39.7089 47.3874 39.5313 47.3288 39.388 47.2189L36.8009 45.2291C36.5506 45.2419 36.2983 45.2467 36.0478 45.2436L33.5538 47.3241C33.4582 47.4034 33.3452 47.4592 33.2241 47.4871C33.1029 47.5149 32.9758 47.5144 32.855 47.4847C31.8438 47.2366 30.8646 46.8752 29.9342 46.4107L31.1921 45.2475C31.7259 45.4814 32.2753 45.6787 32.8371 45.836L35.2602 43.8173C35.4117 43.6915 35.6051 43.6257 35.8019 43.6338C36.1962 43.6488 36.5914 43.6417 36.9848 43.6116L37.0327 43.6101C37.2132 43.6064 37.3897 43.665 37.5331 43.7749L40.034 45.6975C40.8263 45.4439 41.5922 45.1114 42.3186 44.7059L42.6065 41.5659C42.6253 41.3697 42.7168 41.1875 42.8622 41.0546C43.1523 40.7869 43.4263 40.5019 43.6827 40.2018C43.8099 40.0512 43.989 39.9526 44.1843 39.9261L47.3132 39.5176L47.3063 39.5175C47.684 38.777 47.9863 38.0002 48.2097 37.1996L46.192 34.7765C46.0662 34.6249 46.0003 34.4316 46.0085 34.2348C46.0234 33.8407 46.0164 33.4461 45.9862 33.0529C45.9704 32.8566 46.0278 32.6608 46.1476 32.5045L48.0712 30.0037C47.817 29.2147 47.4845 28.453 47.0795 27.7297L43.9395 27.4409C43.7433 27.422 43.5601 27.3316 43.4272 27.1861C43.1594 26.8961 42.8746 26.622 42.5744 26.3657C42.4239 26.2385 42.3261 26.0594 42.2997 25.8641L41.8902 22.7362C41.1497 22.3577 40.3731 22.054 39.5723 21.8299L37.1492 23.8476C36.9977 23.9734 36.8042 24.0382 36.6074 24.0301C36.2131 24.0152 35.817 24.0232 35.4236 24.0533C35.2273 24.069 35.0315 24.0109 34.8753 23.891L32.3744 21.9684C31.5845 22.2223 30.8217 22.555 30.0975 22.96L29.8087 26.1001C29.7898 26.2961 29.6993 26.4785 29.554 26.6114C29.2638 26.8791 28.9889 27.164 28.7325 27.4642C28.6052 27.6147 28.4263 27.7125 28.231 27.7389L25.105 28.1484C24.7264 28.8887 24.4229 29.6656 24.1987 30.4663L26.2174 32.8894C26.3432 33.041 26.4081 33.2343 26.3999 33.4311C26.385 33.8252 26.393 34.2198 26.4231 34.613C26.4389 34.8095 26.3808 35.005 26.2608 35.1614L24.3382 37.6622C24.5692 38.3807 24.8649 39.0768 25.2213 39.7418L24.0205 40.8518C23.4512 39.8662 23.0025 38.8148 22.6881 37.7202C22.6539 37.6008 22.6489 37.4749 22.672 37.3528C22.6952 37.2306 22.7468 37.1151 22.8226 37.0163L24.8134 34.435C24.8006 34.1847 24.7948 33.9326 24.7979 33.6819L22.7106 31.1752C22.6324 31.0804 22.5774 30.9682 22.5496 30.8485C22.5218 30.7288 22.5216 30.6038 22.55 30.4842C22.8451 29.2818 23.2989 28.1239 23.8984 27.0405C23.958 26.9306 24.0422 26.8356 24.1451 26.7645C24.248 26.6934 24.3671 26.6478 24.4911 26.6309L27.7296 26.2C27.8966 26.0147 28.0696 25.8338 28.2492 25.6589L28.541 22.4104C28.553 22.2859 28.5945 22.1656 28.6615 22.06C28.7285 21.9544 28.8199 21.8655 28.9275 21.8017C29.9884 21.1592 31.1308 20.6605 32.3233 20.3194C32.4426 20.2852 32.5686 20.2793 32.6906 20.3023C32.8127 20.3254 32.9285 20.3773 33.0271 20.4529L35.6026 22.4436C35.8529 22.4308 36.105 22.426 36.3557 22.4291L38.8624 20.3418C38.9576 20.2617 39.071 20.2046 39.1921 20.1759Z" fill="white"/>
</g>
<defs>
<filter id="filter0_d_2329_7069" x="18" y="18.155" width="33.8859" height="33.6785" filterUnits="userSpaceOnUse" color-interpolation-filters="sRGB">
<feFlood flood-opacity="0" result="BackgroundImageFix"/>
<feColorMatrix in="SourceAlpha" type="matrix" values="0 0 0 0 0 0 0 0 0 0 0 0 0 0 0 0 0 0 127 0" result="hardAlpha"/>
<feOffset/>
<feGaussianBlur stdDeviation="1"/>
<feComposite in2="hardAlpha" operator="out"/>
<feColorMatrix type="matrix" values="0 0 0 0 0 0 0 0 0 0 0 0 0 0 0 0 0 0 0.15 0"/>
<feBlend mode="normal" in2="BackgroundImageFix" result="effect1_dropShadow_2329_7069"/>
<feBlend mode="normal" in="SourceGraphic" in2="effect1_dropShadow_2329_7069" result="shape"/>
</filter>
</defs>
</svg>
