<svg width="70" height="70" viewBox="0 0 70 70" fill="none" xmlns="http://www.w3.org/2000/svg">
<rect x="0.5" y="0.5" width="69" height="69" rx="34.5" fill="#8C0404" stroke="#8C0404"/>
<g filter="url(#filter0_d_2329_7095)">
<path d="M47.1875 22C47.6682 22 48.1288 22.1886 48.4688 22.5234C48.8087 22.8583 49 23.3125 49 23.7861V27.3574C48.9999 27.8309 48.8086 28.2853 48.4688 28.6201C48.1289 28.9548 47.668 29.1426 47.1875 29.1426V42.5361C47.1874 43.72 46.71 44.8553 45.8604 45.6924C45.0106 46.5296 43.858 47 42.6562 47H26.3438C25.142 47 23.9894 46.5296 23.1396 45.6924C22.29 44.8553 21.8126 43.72 21.8125 42.5361V29.1426C21.332 29.1426 20.8711 28.9548 20.5312 28.6201C20.1914 28.2853 20.0001 27.8309 20 27.3574V23.7861C20 23.3125 20.1913 22.8583 20.5312 22.5234C20.8712 22.1886 21.3318 22 21.8125 22H47.1875ZM23.625 42.5361C23.6251 43.2463 23.9113 43.9275 24.4209 44.4297C24.9308 44.932 25.6227 45.2139 26.3438 45.2139H42.6562C43.3773 45.2139 44.0692 44.932 44.5791 44.4297C45.0887 43.9275 45.3749 43.2463 45.375 42.5361V29.1426H23.625V42.5361ZM39.0312 32.7139C39.2715 32.7139 39.5019 32.8083 39.6719 32.9756C39.8418 33.143 39.9375 33.3706 39.9375 33.6074C39.9374 33.8441 39.8418 34.0709 39.6719 34.2383C39.5019 34.4057 39.2716 34.5 39.0312 34.5H29.9688C29.7284 34.5 29.4981 34.4057 29.3281 34.2383C29.1582 34.0709 29.0626 33.8441 29.0625 33.6074C29.0625 33.3706 29.1582 33.143 29.3281 32.9756C29.4981 32.8083 29.7285 32.7139 29.9688 32.7139H39.0312ZM21.8125 27.3574H47.1875V23.7861H21.8125V27.3574Z" fill="white"/>
</g>
<defs>
<filter id="filter0_d_2329_7095" x="18" y="20" width="33" height="29" filterUnits="userSpaceOnUse" color-interpolation-filters="sRGB">
<feFlood flood-opacity="0" result="BackgroundImageFix"/>
<feColorMatrix in="SourceAlpha" type="matrix" values="0 0 0 0 0 0 0 0 0 0 0 0 0 0 0 0 0 0 127 0" result="hardAlpha"/>
<feOffset/>
<feGaussianBlur stdDeviation="1"/>
<feComposite in2="hardAlpha" operator="out"/>
<feColorMatrix type="matrix" values="0 0 0 0 0 0 0 0 0 0 0 0 0 0 0 0 0 0 0.15 0"/>
<feBlend mode="normal" in2="BackgroundImageFix" result="effect1_dropShadow_2329_7095"/>
<feBlend mode="normal" in="SourceGraphic" in2="effect1_dropShadow_2329_7095" result="shape"/>
</filter>
</defs>
</svg>
