<svg width="70" height="70" viewBox="0 0 70 70" fill="none" xmlns="http://www.w3.org/2000/svg">
<rect x="0.5" y="0.5" width="69" height="69" rx="34.5" fill="#8C0404" stroke="#8C0404"/>
<g filter="url(#filter0_d_2329_7084)">
<path d="M42 41C41.0111 41 40.0444 41.2932 39.2222 41.8427C38.3999 42.3921 37.759 43.173 37.3806 44.0866C37.0022 45.0002 36.9031 46.0055 37.0961 46.9755C37.289 47.9454 37.7652 48.8363 38.4645 49.5355C39.1637 50.2348 40.0546 50.711 41.0245 50.9039C41.9945 51.0969 42.9998 50.9978 43.9134 50.6194C44.827 50.241 45.6079 49.6001 46.1573 48.7778C46.7068 47.9556 47 46.9889 47 46C46.9986 44.6743 46.4714 43.4034 45.534 42.466C44.5966 41.5286 43.3257 41.0014 42 41ZM44.6923 46.3846H42C41.898 46.3846 41.8002 46.3441 41.728 46.272C41.6559 46.1998 41.6154 46.102 41.6154 46V43.3077C41.6154 43.2057 41.6559 43.1079 41.728 43.0357C41.8002 42.9636 41.898 42.9231 42 42.9231C42.102 42.9231 42.1998 42.9636 42.272 43.0357C42.3441 43.1079 42.3846 43.2057 42.3846 43.3077V45.6154H44.6923C44.7943 45.6154 44.8921 45.6559 44.9643 45.728C45.0364 45.8002 45.0769 45.898 45.0769 46C45.0769 46.102 45.0364 46.1998 44.9643 46.272C44.8921 46.3441 44.7943 46.3846 44.6923 46.3846Z" fill="white"/>
<path d="M47.1875 26C47.6682 26 48.1288 26.1886 48.4688 26.5234C48.8087 26.8583 49 27.3125 49 27.7861V31.3574C48.9999 31.8309 48.8086 32.2853 48.4688 32.6201C48.1289 32.9548 47.668 33.1426 47.1875 33.1426V41.8232C46.7042 41.1303 46.0887 40.528 45.375 40.0469V33.1426H23.625V46.5361C23.6251 47.2463 23.9113 47.9275 24.4209 48.4297C24.9308 48.932 25.6227 49.2139 26.3438 49.2139H35.3564C35.8461 49.9124 36.4705 50.5182 37.1943 51H26.3438C25.142 51 23.9894 50.5296 23.1396 49.6924C22.29 48.8553 21.8126 47.72 21.8125 46.5361V33.1426C21.332 33.1426 20.8711 32.9548 20.5312 32.6201C20.1914 32.2853 20.0001 31.8309 20 31.3574V27.7861C20 27.3125 20.1913 26.8583 20.5312 26.5234C20.8712 26.1886 21.3318 26 21.8125 26H47.1875ZM39.0312 36.7139C39.2715 36.7139 39.5019 36.8083 39.6719 36.9756C39.8418 37.143 39.9375 37.3706 39.9375 37.6074C39.9374 37.8441 39.8418 38.0709 39.6719 38.2383C39.5019 38.4057 39.2716 38.5 39.0312 38.5H29.9688C29.7284 38.5 29.4981 38.4057 29.3281 38.2383C29.1582 38.0709 29.0626 37.8441 29.0625 37.6074C29.0625 37.3706 29.1582 37.143 29.3281 36.9756C29.4981 36.8083 29.7285 36.7139 29.9688 36.7139H39.0312ZM21.8125 31.3574H47.1875V27.7861H21.8125V31.3574Z" fill="white"/>
</g>
<defs>
<filter id="filter0_d_2329_7084" x="18" y="24" width="33" height="29" filterUnits="userSpaceOnUse" color-interpolation-filters="sRGB">
<feFlood flood-opacity="0" result="BackgroundImageFix"/>
<feColorMatrix in="SourceAlpha" type="matrix" values="0 0 0 0 0 0 0 0 0 0 0 0 0 0 0 0 0 0 127 0" result="hardAlpha"/>
<feOffset/>
<feGaussianBlur stdDeviation="1"/>
<feComposite in2="hardAlpha" operator="out"/>
<feColorMatrix type="matrix" values="0 0 0 0 0 0 0 0 0 0 0 0 0 0 0 0 0 0 0.15 0"/>
<feBlend mode="normal" in2="BackgroundImageFix" result="effect1_dropShadow_2329_7084"/>
<feBlend mode="normal" in="SourceGraphic" in2="effect1_dropShadow_2329_7084" result="shape"/>
</filter>
</defs>
</svg>
