<svg width="33" height="29" viewBox="0 0 33 29" fill="none" xmlns="http://www.w3.org/2000/svg">
<g filter="url(#filter0_d_2101_6430)">
<path d="M24 17C23.0111 17 22.0444 17.2932 21.2222 17.8427C20.3999 18.3921 19.759 19.173 19.3806 20.0866C19.0022 21.0002 18.9031 22.0055 19.0961 22.9755C19.289 23.9454 19.7652 24.8363 20.4645 25.5355C21.1637 26.2348 22.0546 26.711 23.0245 26.9039C23.9945 27.0969 24.9998 26.9978 25.9134 26.6194C26.827 26.241 27.6079 25.6001 28.1573 24.7778C28.7068 23.9556 29 22.9889 29 22C28.9986 20.6743 28.4714 19.4034 27.534 18.466C26.5966 17.5286 25.3257 17.0014 24 17ZM26.6923 22.3846H24C23.898 22.3846 23.8002 22.3441 23.728 22.272C23.6559 22.1998 23.6154 22.102 23.6154 22V19.3077C23.6154 19.2057 23.6559 19.1079 23.728 19.0357C23.8002 18.9636 23.898 18.9231 24 18.9231C24.102 18.9231 24.1998 18.9636 24.272 19.0357C24.3441 19.1079 24.3846 19.2057 24.3846 19.3077V21.6154H26.6923C26.7943 21.6154 26.8921 21.6559 26.9643 21.728C27.0364 21.8002 27.0769 21.898 27.0769 22C27.0769 22.102 27.0364 22.1998 26.9643 22.272C26.8921 22.3441 26.7943 22.3846 26.6923 22.3846Z" fill="#C62742"/>
<path d="M29.1875 2C29.6682 2 30.1288 2.18855 30.4688 2.52344C30.8087 2.85832 31 3.31254 31 3.78613V7.35742C30.9999 7.83092 30.8086 8.2853 30.4688 8.62012C30.1289 8.9548 29.668 9.14258 29.1875 9.14258V17.8232C28.7042 17.1303 28.0887 16.528 27.375 16.0469V9.14258H5.625V22.5361C5.62511 23.2463 5.91128 23.9275 6.4209 24.4297C6.93076 24.932 7.62269 25.2139 8.34375 25.2139H17.3564C17.8461 25.9124 18.4705 26.5182 19.1943 27H8.34375C7.14199 27 5.98942 26.5296 5.13965 25.6924C4.29 24.8553 3.81261 23.72 3.8125 22.5361V9.14258C3.33195 9.14258 2.87113 8.9548 2.53125 8.62012C2.19141 8.2853 2.00007 7.83092 2 7.35742V3.78613C2 3.31254 2.19135 2.85832 2.53125 2.52344C2.87116 2.18855 3.3318 2 3.8125 2H29.1875ZM21.0312 12.7139C21.2715 12.7139 21.5019 12.8083 21.6719 12.9756C21.8418 13.143 21.9375 13.3706 21.9375 13.6074C21.9374 13.8441 21.8418 14.0709 21.6719 14.2383C21.5019 14.4057 21.2716 14.5 21.0312 14.5H11.9688C11.7284 14.5 11.4981 14.4057 11.3281 14.2383C11.1582 14.0709 11.0626 13.8441 11.0625 13.6074C11.0625 13.3706 11.1582 13.143 11.3281 12.9756C11.4981 12.8083 11.7285 12.7139 11.9688 12.7139H21.0312ZM3.8125 7.35742H29.1875V3.78613H3.8125V7.35742Z" fill="#C62742"/>
</g>
<defs>
<filter id="filter0_d_2101_6430" x="0" y="0" width="33" height="29" filterUnits="userSpaceOnUse" color-interpolation-filters="sRGB">
<feFlood flood-opacity="0" result="BackgroundImageFix"/>
<feColorMatrix in="SourceAlpha" type="matrix" values="0 0 0 0 0 0 0 0 0 0 0 0 0 0 0 0 0 0 127 0" result="hardAlpha"/>
<feOffset/>
<feGaussianBlur stdDeviation="1"/>
<feComposite in2="hardAlpha" operator="out"/>
<feColorMatrix type="matrix" values="0 0 0 0 0 0 0 0 0 0 0 0 0 0 0 0 0 0 0.15 0"/>
<feBlend mode="normal" in2="BackgroundImageFix" result="effect1_dropShadow_2101_6430"/>
<feBlend mode="normal" in="SourceGraphic" in2="effect1_dropShadow_2101_6430" result="shape"/>
</filter>
</defs>
</svg>
