<svg width="385" height="140" viewBox="0 0 385 140" fill="none" xmlns="http://www.w3.org/2000/svg">
<path d="M293 58.5068H257.889L244.572 75.9922H293V93.5645H232.823L219.508 111.05H293V135H189V33H293V58.5068Z" fill="white"/>
<path d="M62.7415 63.7074C62.41 60.0615 60.9351 57.2277 58.3168 55.206C55.7315 53.151 52.036 52.1236 47.2301 52.1236C44.0483 52.1236 41.3968 52.5379 39.2756 53.3665C37.1544 54.1951 35.5634 55.3385 34.5028 56.7969C33.4422 58.2221 32.8954 59.8627 32.8622 61.7188C32.7959 63.2434 33.0942 64.5857 33.7571 65.7457C34.4531 66.9058 35.4474 67.9332 36.7401 68.8281C38.0658 69.6899 39.6567 70.4522 41.5128 71.1151C43.3688 71.7779 45.4569 72.358 47.777 72.8551L56.527 74.8438C61.5649 75.9375 66.0062 77.3958 69.8509 79.2188C73.7287 81.0417 76.9768 83.2126 79.5952 85.7315C82.2467 88.2505 84.2519 91.1506 85.6108 94.4318C86.9697 97.7131 87.6657 101.392 87.6989 105.469C87.6657 111.899 86.0417 117.417 82.8267 122.024C79.6117 126.631 74.9882 130.161 68.956 132.614C62.9569 135.066 55.715 136.293 47.2301 136.293C38.7121 136.293 31.2879 135.017 24.9574 132.464C18.6269 129.912 13.705 126.035 10.1918 120.831C6.6785 115.627 4.87216 109.048 4.77273 101.094H28.3381C28.5369 104.375 29.4152 107.109 30.973 109.297C32.5308 111.484 34.6686 113.142 37.3864 114.268C40.1373 115.395 43.3191 115.959 46.9318 115.959C50.2462 115.959 53.0634 115.511 55.3835 114.616C57.7367 113.722 59.5431 112.479 60.8026 110.888C62.062 109.297 62.7083 107.474 62.7415 105.419C62.7083 103.497 62.1117 101.856 60.9517 100.497C59.7917 99.1051 58.0019 97.9119 55.5824 96.9176C53.196 95.8902 50.1468 94.9455 46.4347 94.0838L35.7955 91.598C26.9792 89.5762 20.0355 86.3116 14.9645 81.804C9.89347 77.2633 7.37453 71.1316 7.40767 63.4091C7.37453 57.1117 9.06487 51.5933 12.4787 46.8537C15.8925 42.1141 20.6155 38.4186 26.6477 35.767C32.6799 33.1155 39.5573 31.7898 47.2798 31.7898C55.1681 31.7898 62.0123 33.1321 67.8125 35.8168C73.6458 38.4683 78.17 42.197 81.3849 47.0028C84.5999 51.8087 86.2405 57.3769 86.3068 63.7074H62.7415Z" fill="white"/>
<path d="M10.9444 18.4062V17.2727H17.6987V18.4062H14.9757V26H13.6632V18.4062H10.9444ZM19.1912 26V17.2727H24.6628V18.4062H20.508V21.0653H24.3773V22.1946H20.508V24.8665H24.714V26H19.1912ZM33.6703 20.1108H32.3407C32.2896 19.8267 32.1944 19.5767 32.0552 19.3608C31.916 19.1449 31.7456 18.9616 31.5439 18.8111C31.3422 18.6605 31.1163 18.5469 30.8663 18.4702C30.6191 18.3935 30.3564 18.3551 30.0779 18.3551C29.5751 18.3551 29.1248 18.4815 28.7271 18.7344C28.3322 18.9872 28.0197 19.358 27.7896 19.8466C27.5623 20.3352 27.4487 20.9318 27.4487 21.6364C27.4487 22.3466 27.5623 22.946 27.7896 23.4347C28.0197 23.9233 28.3336 24.2926 28.7314 24.5426C29.1291 24.7926 29.5765 24.9176 30.0737 24.9176C30.3493 24.9176 30.6106 24.8807 30.8578 24.8068C31.1078 24.7301 31.3336 24.6179 31.5353 24.4702C31.737 24.3224 31.9075 24.142 32.0467 23.929C32.1887 23.7131 32.2868 23.4659 32.3407 23.1875L33.6703 23.1918C33.5993 23.6207 33.4615 24.0156 33.2569 24.3764C33.0552 24.7344 32.7953 25.044 32.4771 25.3054C32.1618 25.5639 31.801 25.7642 31.3947 25.9062C30.9885 26.0483 30.5453 26.1193 30.0652 26.1193C29.3095 26.1193 28.6362 25.9403 28.0453 25.5824C27.4544 25.2216 26.9885 24.706 26.6475 24.0355C26.3095 23.3651 26.1404 22.5653 26.1404 21.6364C26.1404 20.7045 26.3109 19.9048 26.6518 19.2372C26.9927 18.5668 27.4586 18.0526 28.0495 17.6946C28.6404 17.3338 29.3123 17.1534 30.0652 17.1534C30.5282 17.1534 30.96 17.2202 31.3606 17.3537C31.764 17.4844 32.1262 17.6776 32.4473 17.9332C32.7683 18.1861 33.0339 18.4957 33.2441 18.8622C33.4544 19.2259 33.5964 19.642 33.6703 20.1108ZM35.2459 26V17.2727H36.5627V21.0653H40.9135V17.2727H42.2346V26H40.9135V22.1946H36.5627V26H35.2459ZM51.1962 17.2727V26H49.986L45.5499 19.5994H45.4689V26H44.1522V17.2727H45.3709L49.8113 23.6818H49.8922V17.2727H51.1962ZM60.698 21.6364C60.698 22.5682 60.5275 23.3693 60.1866 24.0398C59.8457 24.7074 59.3784 25.2216 58.7846 25.5824C58.1937 25.9403 57.5218 26.1193 56.769 26.1193C56.0133 26.1193 55.3386 25.9403 54.7449 25.5824C54.1539 25.2216 53.688 24.706 53.3471 24.0355C53.0062 23.3651 52.8358 22.5653 52.8358 21.6364C52.8358 20.7045 53.0062 19.9048 53.3471 19.2372C53.688 18.5668 54.1539 18.0526 54.7449 17.6946C55.3386 17.3338 56.0133 17.1534 56.769 17.1534C57.5218 17.1534 58.1937 17.3338 58.7846 17.6946C59.3784 18.0526 59.8457 18.5668 60.1866 19.2372C60.5275 19.9048 60.698 20.7045 60.698 21.6364ZM59.394 21.6364C59.394 20.9261 59.2789 20.3281 59.0488 19.8423C58.8216 19.3537 58.5091 18.9844 58.1113 18.7344C57.7164 18.4815 57.269 18.3551 56.769 18.3551C56.2662 18.3551 55.8173 18.4815 55.4224 18.7344C55.0275 18.9844 54.715 19.3537 54.4849 19.8423C54.2576 20.3281 54.144 20.9261 54.144 21.6364C54.144 22.3466 54.2576 22.946 54.4849 23.4347C54.715 23.9205 55.0275 24.2898 55.4224 24.5426C55.8173 24.7926 56.2662 24.9176 56.769 24.9176C57.269 24.9176 57.7164 24.7926 58.1113 24.5426C58.5091 24.2898 58.8216 23.9205 59.0488 23.4347C59.2789 22.946 59.394 22.3466 59.394 21.6364ZM62.3397 26V17.2727H63.6564V24.8665H67.611V26H62.3397ZM76.3542 21.6364C76.3542 22.5682 76.1838 23.3693 75.8429 24.0398C75.502 24.7074 75.0346 25.2216 74.4409 25.5824C73.85 25.9403 73.1781 26.1193 72.4252 26.1193C71.6696 26.1193 70.9949 25.9403 70.4011 25.5824C69.8102 25.2216 69.3443 24.706 69.0034 24.0355C68.6625 23.3651 68.492 22.5653 68.492 21.6364C68.492 20.7045 68.6625 19.9048 69.0034 19.2372C69.3443 18.5668 69.8102 18.0526 70.4011 17.6946C70.9949 17.3338 71.6696 17.1534 72.4252 17.1534C73.1781 17.1534 73.85 17.3338 74.4409 17.6946C75.0346 18.0526 75.502 18.5668 75.8429 19.2372C76.1838 19.9048 76.3542 20.7045 76.3542 21.6364ZM75.0502 21.6364C75.0502 20.9261 74.9352 20.3281 74.7051 19.8423C74.4778 19.3537 74.1653 18.9844 73.7676 18.7344C73.3727 18.4815 72.9252 18.3551 72.4252 18.3551C71.9224 18.3551 71.4735 18.4815 71.0787 18.7344C70.6838 18.9844 70.3713 19.3537 70.1412 19.8423C69.9139 20.3281 69.8002 20.9261 69.8002 21.6364C69.8002 22.3466 69.9139 22.946 70.1412 23.4347C70.3713 23.9205 70.6838 24.2898 71.0787 24.5426C71.4735 24.7926 71.9224 24.9176 72.4252 24.9176C72.9252 24.9176 73.3727 24.7926 73.7676 24.5426C74.1653 24.2898 74.4778 23.9205 74.7051 23.4347C74.9352 22.946 75.0502 22.3466 75.0502 21.6364ZM83.9022 20.0298C83.8198 19.7713 83.709 19.5398 83.5698 19.3352C83.4334 19.1278 83.2701 18.9517 83.0797 18.8068C82.8894 18.6591 82.6721 18.5469 82.4277 18.4702C82.1863 18.3935 81.9206 18.3551 81.6309 18.3551C81.1394 18.3551 80.6962 18.4815 80.3013 18.7344C79.9064 18.9872 79.5939 19.358 79.3638 19.8466C79.1365 20.3324 79.0229 20.9276 79.0229 21.6321C79.0229 22.3395 79.138 22.9375 79.3681 23.4261C79.5982 23.9148 79.9135 24.2855 80.3141 24.5384C80.7147 24.7912 81.1706 24.9176 81.682 24.9176C82.1564 24.9176 82.5698 24.821 82.9221 24.6278C83.2772 24.4347 83.5513 24.1619 83.7445 23.8097C83.9405 23.4545 84.0385 23.0369 84.0385 22.5568L84.3794 22.6207H81.8823V21.5341H85.3127V22.527C85.3127 23.2599 85.1564 23.8963 84.8439 24.4361C84.5343 24.973 84.1053 25.3878 83.557 25.6804C83.0115 25.973 82.3865 26.1193 81.682 26.1193C80.8922 26.1193 80.199 25.9375 79.6025 25.5739C79.0087 25.2102 78.5456 24.6946 78.2132 24.027C77.8809 23.3565 77.7147 22.5611 77.7147 21.6406C77.7147 20.9446 77.8113 20.3196 78.0044 19.7656C78.1976 19.2116 78.4689 18.7415 78.8184 18.3551C79.1706 17.9659 79.584 17.669 80.0584 17.4645C80.5357 17.2571 81.057 17.1534 81.6223 17.1534C82.0939 17.1534 82.5328 17.223 82.9391 17.3622C83.3482 17.5014 83.7118 17.6989 84.03 17.9545C84.351 18.2102 84.6167 18.5142 84.8269 18.8665C85.0371 19.2159 85.1792 19.6037 85.253 20.0298H83.9022ZM88.301 17.2727V26H86.9842V17.2727H88.301ZM97.4672 20.1108H96.1376C96.0865 19.8267 95.9913 19.5767 95.8521 19.3608C95.7129 19.1449 95.5424 18.9616 95.3407 18.8111C95.139 18.6605 94.9132 18.5469 94.6632 18.4702C94.416 18.3935 94.1532 18.3551 93.8748 18.3551C93.372 18.3551 92.9217 18.4815 92.524 18.7344C92.1291 18.9872 91.8166 19.358 91.5865 19.8466C91.3592 20.3352 91.2456 20.9318 91.2456 21.6364C91.2456 22.3466 91.3592 22.946 91.5865 23.4347C91.8166 23.9233 92.1305 24.2926 92.5282 24.5426C92.926 24.7926 93.3734 24.9176 93.8706 24.9176C94.1461 24.9176 94.4075 24.8807 94.6547 24.8068C94.9047 24.7301 95.1305 24.6179 95.3322 24.4702C95.5339 24.3224 95.7044 24.142 95.8436 23.929C95.9856 23.7131 96.0836 23.4659 96.1376 23.1875L97.4672 23.1918C97.3961 23.6207 97.2583 24.0156 97.0538 24.3764C96.8521 24.7344 96.5922 25.044 96.274 25.3054C95.9586 25.5639 95.5978 25.7642 95.1916 25.9062C94.7853 26.0483 94.3422 26.1193 93.862 26.1193C93.1064 26.1193 92.4331 25.9403 91.8422 25.5824C91.2512 25.2216 90.7853 24.706 90.4444 24.0355C90.1064 23.3651 89.9373 22.5653 89.9373 21.6364C89.9373 20.7045 90.1078 19.9048 90.4487 19.2372C90.7896 18.5668 91.2555 18.0526 91.8464 17.6946C92.4373 17.3338 93.1092 17.1534 93.862 17.1534C94.3251 17.1534 94.7569 17.2202 95.1575 17.3537C95.5609 17.4844 95.9231 17.6776 96.2441 17.9332C96.5652 18.1861 96.8308 18.4957 97.041 18.8622C97.2512 19.2259 97.3933 19.642 97.4672 20.1108ZM99.7214 26H98.3237L101.464 17.2727H102.986L106.126 26H104.729L102.261 18.858H102.193L99.7214 26ZM99.9558 22.5824H104.49V23.6903H99.9558V22.5824ZM107.387 26V17.2727H108.703V24.8665H112.658V26H107.387ZM122.948 17.2727H124.269V23.0128C124.269 23.6236 124.126 24.1648 123.839 24.6364C123.552 25.1051 123.148 25.4744 122.628 25.7443C122.108 26.0114 121.499 26.1449 120.8 26.1449C120.104 26.1449 119.496 26.0114 118.976 25.7443C118.456 25.4744 118.053 25.1051 117.766 24.6364C117.479 24.1648 117.336 23.6236 117.336 23.0128V17.2727H118.653V22.9062C118.653 23.3011 118.739 23.652 118.912 23.9588C119.089 24.2656 119.337 24.5071 119.658 24.6832C119.979 24.8565 120.36 24.9432 120.8 24.9432C121.243 24.9432 121.626 24.8565 121.947 24.6832C122.27 24.5071 122.518 24.2656 122.688 23.9588C122.861 23.652 122.948 23.3011 122.948 22.9062V17.2727ZM133.227 17.2727V26H132.017L127.581 19.5994H127.5V26H126.183V17.2727H127.402L131.843 23.6818H131.923V17.2727H133.227ZM136.465 17.2727V26H135.148V17.2727H136.465ZM139.145 17.2727L141.574 24.3807H141.672L144.101 17.2727H145.525L142.384 26H140.863L137.722 17.2727H139.145ZM146.785 26V17.2727H152.257V18.4062H148.102V21.0653H151.971V22.1946H148.102V24.8665H152.308V26H146.785ZM154.015 26V17.2727H157.126C157.802 17.2727 158.363 17.3892 158.809 17.6222C159.258 17.8551 159.594 18.1776 159.815 18.5895C160.037 18.9986 160.148 19.4716 160.148 20.0085C160.148 20.5426 160.035 21.0128 159.811 21.419C159.589 21.8224 159.254 22.1364 158.805 22.3608C158.359 22.5852 157.798 22.6974 157.122 22.6974H154.765V21.5639H157.003C157.429 21.5639 157.775 21.5028 158.042 21.3807C158.312 21.2585 158.51 21.081 158.635 20.848C158.76 20.6151 158.822 20.3352 158.822 20.0085C158.822 19.679 158.758 19.3935 158.631 19.152C158.506 18.9105 158.308 18.7259 158.038 18.598C157.771 18.4673 157.42 18.402 156.986 18.402H155.332V26H154.015ZM158.324 22.0625L160.48 26H158.98L156.866 22.0625H158.324ZM166.51 19.5653C166.464 19.1619 166.277 18.8494 165.947 18.6278C165.618 18.4034 165.203 18.2912 164.703 18.2912C164.345 18.2912 164.035 18.348 163.774 18.4616C163.513 18.5724 163.309 18.7259 163.165 18.9219C163.023 19.1151 162.952 19.3352 162.952 19.5824C162.952 19.7898 163 19.9687 163.096 20.1193C163.196 20.2699 163.325 20.3963 163.484 20.4986C163.646 20.598 163.819 20.6818 164.004 20.75C164.189 20.8153 164.366 20.8693 164.537 20.9119L165.389 21.1335C165.667 21.2017 165.953 21.294 166.246 21.4105C166.538 21.527 166.809 21.6804 167.059 21.8707C167.309 22.0611 167.511 22.2969 167.665 22.5781C167.821 22.8594 167.899 23.196 167.899 23.5881C167.899 24.0824 167.771 24.5213 167.515 24.9048C167.263 25.2884 166.895 25.5909 166.412 25.8125C165.932 26.0341 165.351 26.1449 164.669 26.1449C164.015 26.1449 163.45 26.0412 162.973 25.8338C162.496 25.6264 162.122 25.3324 161.852 24.9517C161.582 24.5682 161.433 24.1136 161.405 23.5881H162.726C162.751 23.9034 162.854 24.1662 163.032 24.3764C163.214 24.5838 163.446 24.7386 163.727 24.8409C164.011 24.9403 164.322 24.9901 164.66 24.9901C165.032 24.9901 165.363 24.9318 165.653 24.8153C165.946 24.696 166.176 24.5312 166.344 24.321C166.511 24.108 166.595 23.8594 166.595 23.5753C166.595 23.3168 166.521 23.1051 166.373 22.9403C166.229 22.7756 166.031 22.6392 165.781 22.5312C165.534 22.4233 165.254 22.3281 164.942 22.2457L163.91 21.9645C163.211 21.7741 162.657 21.4943 162.248 21.125C161.842 20.7557 161.639 20.267 161.639 19.6591C161.639 19.1562 161.775 18.7173 162.048 18.3423C162.321 17.9673 162.69 17.6761 163.156 17.4688C163.622 17.2585 164.148 17.1534 164.733 17.1534C165.324 17.1534 165.845 17.2571 166.297 17.4645C166.751 17.6719 167.109 17.9574 167.371 18.321C167.632 18.6818 167.768 19.0966 167.78 19.5653H166.51ZM170.789 17.2727V26H169.472V17.2727H170.789ZM172.276 18.4062V17.2727H179.031V18.4062H176.308V26H174.995V18.4062H172.276ZM179.85 17.2727H181.346L183.626 21.2401H183.719L185.999 17.2727H187.495L184.329 22.5739V26H183.016V22.5739L179.85 17.2727ZM199.495 21.6364C199.495 22.5682 199.324 23.3693 198.983 24.0398C198.643 24.7074 198.175 25.2216 197.581 25.5824C196.991 25.9403 196.319 26.1193 195.566 26.1193C194.81 26.1193 194.135 25.9403 193.542 25.5824C192.951 25.2216 192.485 24.706 192.144 24.0355C191.803 23.3651 191.633 22.5653 191.633 21.6364C191.633 20.7045 191.803 19.9048 192.144 19.2372C192.485 18.5668 192.951 18.0526 193.542 17.6946C194.135 17.3338 194.81 17.1534 195.566 17.1534C196.319 17.1534 196.991 17.3338 197.581 17.6946C198.175 18.0526 198.643 18.5668 198.983 19.2372C199.324 19.9048 199.495 20.7045 199.495 21.6364ZM198.191 21.6364C198.191 20.9261 198.076 20.3281 197.846 19.8423C197.618 19.3537 197.306 18.9844 196.908 18.7344C196.513 18.4815 196.066 18.3551 195.566 18.3551C195.063 18.3551 194.614 18.4815 194.219 18.7344C193.824 18.9844 193.512 19.3537 193.282 19.8423C193.055 20.3281 192.941 20.9261 192.941 21.6364C192.941 22.3466 193.055 22.946 193.282 23.4347C193.512 23.9205 193.824 24.2898 194.219 24.5426C194.614 24.7926 195.063 24.9176 195.566 24.9176C196.066 24.9176 196.513 24.7926 196.908 24.5426C197.306 24.2898 197.618 23.9205 197.846 23.4347C198.076 22.946 198.191 22.3466 198.191 21.6364ZM201.137 26V17.2727H206.548V18.4062H202.453V21.0653H206.161V22.1946H202.453V26H201.137ZM210.913 18.4062V17.2727H217.667V18.4062H214.944V26H213.632V18.4062H210.913ZM219.16 26V17.2727H220.477V21.0653H224.828V17.2727H226.149V26H224.828V22.1946H220.477V26H219.16ZM228.066 26V17.2727H233.538V18.4062H229.383V21.0653H233.252V22.1946H229.383V24.8665H233.589V26H228.066ZM238.472 26V17.2727H241.583C242.262 17.2727 242.825 17.3963 243.271 17.6435C243.717 17.8906 244.051 18.2287 244.272 18.6577C244.494 19.0838 244.605 19.5639 244.605 20.098C244.605 20.6349 244.492 21.1179 244.268 21.5469C244.046 21.973 243.711 22.3111 243.262 22.5611C242.816 22.8082 242.255 22.9318 241.579 22.9318H239.44V21.8153H241.46C241.889 21.8153 242.237 21.7415 242.504 21.5938C242.771 21.4432 242.967 21.2386 243.092 20.9801C243.217 20.7216 243.279 20.4276 243.279 20.098C243.279 19.7685 243.217 19.4759 243.092 19.2202C242.967 18.9645 242.769 18.7642 242.499 18.6193C242.232 18.4744 241.88 18.402 241.443 18.402H239.789V26H238.472ZM246.148 26V17.2727H247.465V21.0653H251.816V17.2727H253.137V26H251.816V22.1946H247.465V26H246.148ZM256.371 17.2727V26H255.055V17.2727H256.371ZM258.289 26V17.2727H259.606V24.8665H263.56V26H258.289ZM266.379 17.2727V26H265.062V17.2727H266.379ZM268.297 26V17.2727H271.407C272.086 17.2727 272.649 17.3963 273.095 17.6435C273.541 17.8906 273.875 18.2287 274.096 18.6577C274.318 19.0838 274.429 19.5639 274.429 20.098C274.429 20.6349 274.317 21.1179 274.092 21.5469C273.871 21.973 273.535 22.3111 273.086 22.5611C272.64 22.8082 272.079 22.9318 271.403 22.9318H269.264V21.8153H271.284C271.713 21.8153 272.061 21.7415 272.328 21.5938C272.595 21.4432 272.791 21.2386 272.916 20.9801C273.041 20.7216 273.104 20.4276 273.104 20.098C273.104 19.7685 273.041 19.4759 272.916 19.2202C272.791 18.9645 272.594 18.7642 272.324 18.6193C272.057 18.4744 271.704 18.402 271.267 18.402H269.613V26H268.297ZM275.972 26V17.2727H279.083C279.762 17.2727 280.325 17.3963 280.771 17.6435C281.217 17.8906 281.551 18.2287 281.772 18.6577C281.994 19.0838 282.105 19.5639 282.105 20.098C282.105 20.6349 281.992 21.1179 281.768 21.5469C281.546 21.973 281.211 22.3111 280.762 22.5611C280.316 22.8082 279.755 22.9318 279.079 22.9318H276.94V21.8153H278.96C279.389 21.8153 279.737 21.7415 280.004 21.5938C280.271 21.4432 280.467 21.2386 280.592 20.9801C280.717 20.7216 280.779 20.4276 280.779 20.098C280.779 19.7685 280.717 19.4759 280.592 19.2202C280.467 18.9645 280.269 18.7642 279.999 18.6193C279.732 18.4744 279.38 18.402 278.943 18.402H277.289V26H275.972ZM284.965 17.2727V26H283.648V17.2727H284.965ZM293.927 17.2727V26H292.716L288.28 19.5994H288.199V26H286.883V17.2727H288.101L292.542 23.6818H292.623V17.2727H293.927ZM295.847 26V17.2727H301.319V18.4062H297.164V21.0653H301.034V22.1946H297.164V24.8665H301.37V26H295.847ZM307.838 19.5653C307.792 19.1619 307.605 18.8494 307.275 18.6278C306.946 18.4034 306.531 18.2912 306.031 18.2912C305.673 18.2912 305.363 18.348 305.102 18.4616C304.841 18.5724 304.638 18.7259 304.493 18.9219C304.351 19.1151 304.28 19.3352 304.28 19.5824C304.28 19.7898 304.328 19.9687 304.425 20.1193C304.524 20.2699 304.653 20.3963 304.812 20.4986C304.974 20.598 305.148 20.6818 305.332 20.75C305.517 20.8153 305.694 20.8693 305.865 20.9119L306.717 21.1335C306.996 21.2017 307.281 21.294 307.574 21.4105C307.866 21.527 308.138 21.6804 308.388 21.8707C308.638 22.0611 308.839 22.2969 308.993 22.5781C309.149 22.8594 309.227 23.196 309.227 23.5881C309.227 24.0824 309.099 24.5213 308.844 24.9048C308.591 25.2884 308.223 25.5909 307.74 25.8125C307.26 26.0341 306.679 26.1449 305.997 26.1449C305.344 26.1449 304.778 26.0412 304.301 25.8338C303.824 25.6264 303.45 25.3324 303.18 24.9517C302.91 24.5682 302.761 24.1136 302.733 23.5881H304.054C304.079 23.9034 304.182 24.1662 304.361 24.3764C304.542 24.5838 304.774 24.7386 305.055 24.8409C305.339 24.9403 305.65 24.9901 305.988 24.9901C306.361 24.9901 306.692 24.9318 306.981 24.8153C307.274 24.696 307.504 24.5312 307.672 24.321C307.839 24.108 307.923 23.8594 307.923 23.5753C307.923 23.3168 307.849 23.1051 307.702 22.9403C307.557 22.7756 307.359 22.6392 307.109 22.5312C306.862 22.4233 306.582 22.3281 306.27 22.2457L305.238 21.9645C304.54 21.7741 303.986 21.4943 303.577 21.125C303.17 20.7557 302.967 20.267 302.967 19.6591C302.967 19.1562 303.104 18.7173 303.376 18.3423C303.649 17.9673 304.018 17.6761 304.484 17.4688C304.95 17.2585 305.476 17.1534 306.061 17.1534C306.652 17.1534 307.173 17.2571 307.625 17.4645C308.079 17.6719 308.437 17.9574 308.699 18.321C308.96 18.6818 309.096 19.0966 309.108 19.5653H307.838ZM317.731 21.0824V22.1903H313.861V21.0824H317.731ZM322.276 18.4062V17.2727H329.031V18.4062H326.308V26H324.995V18.4062H322.276ZM330.229 26H328.831L331.972 17.2727H333.493L336.634 26H335.236L332.769 18.858H332.701L330.229 26ZM330.464 22.5824H334.998V23.6903H330.464V22.5824ZM343.39 20.0298C343.308 19.7713 343.197 19.5398 343.058 19.3352C342.922 19.1278 342.758 18.9517 342.568 18.8068C342.378 18.6591 342.16 18.5469 341.916 18.4702C341.675 18.3935 341.409 18.3551 341.119 18.3551C340.628 18.3551 340.184 18.4815 339.79 18.7344C339.395 18.9872 339.082 19.358 338.852 19.8466C338.625 20.3324 338.511 20.9276 338.511 21.6321C338.511 22.3395 338.626 22.9375 338.856 23.4261C339.086 23.9148 339.402 24.2855 339.802 24.5384C340.203 24.7912 340.659 24.9176 341.17 24.9176C341.645 24.9176 342.058 24.821 342.41 24.6278C342.765 24.4347 343.04 24.1619 343.233 23.8097C343.429 23.4545 343.527 23.0369 343.527 22.5568L343.868 22.6207H341.371V21.5341H344.801V22.527C344.801 23.2599 344.645 23.8963 344.332 24.4361C344.023 24.973 343.594 25.3878 343.045 25.6804C342.5 25.973 341.875 26.1193 341.17 26.1193C340.381 26.1193 339.687 25.9375 339.091 25.5739C338.497 25.2102 338.034 24.6946 337.702 24.027C337.369 23.3565 337.203 22.5611 337.203 21.6406C337.203 20.9446 337.3 20.3196 337.493 19.7656C337.686 19.2116 337.957 18.7415 338.307 18.3551C338.659 17.9659 339.072 17.669 339.547 17.4645C340.024 17.2571 340.545 17.1534 341.111 17.1534C341.582 17.1534 342.021 17.223 342.427 17.3622C342.836 17.5014 343.2 17.6989 343.518 17.9545C343.839 18.2102 344.105 18.5142 344.315 18.8665C344.525 19.2159 344.667 19.6037 344.741 20.0298H343.39ZM352.085 17.2727H353.406V23.0128C353.406 23.6236 353.262 24.1648 352.975 24.6364C352.688 25.1051 352.285 25.4744 351.765 25.7443C351.245 26.0114 350.636 26.1449 349.937 26.1449C349.241 26.1449 348.633 26.0114 348.113 25.7443C347.593 25.4744 347.19 25.1051 346.903 24.6364C346.616 24.1648 346.472 23.6236 346.472 23.0128V17.2727H347.789V22.9062C347.789 23.3011 347.876 23.652 348.049 23.9588C348.225 24.2656 348.474 24.5071 348.795 24.6832C349.116 24.8565 349.497 24.9432 349.937 24.9432C350.38 24.9432 350.762 24.8565 351.083 24.6832C351.407 24.5071 351.654 24.2656 351.825 23.9588C351.998 23.652 352.085 23.3011 352.085 22.9062V17.2727ZM356.637 17.2727V26H355.32V17.2727H356.637ZM364.461 20.0298C364.378 19.7713 364.268 19.5398 364.128 19.3352C363.992 19.1278 363.829 18.9517 363.638 18.8068C363.448 18.6591 363.231 18.5469 362.986 18.4702C362.745 18.3935 362.479 18.3551 362.189 18.3551C361.698 18.3551 361.255 18.4815 360.86 18.7344C360.465 18.9872 360.153 19.358 359.922 19.8466C359.695 20.3324 359.581 20.9276 359.581 21.6321C359.581 22.3395 359.697 22.9375 359.927 23.4261C360.157 23.9148 360.472 24.2855 360.873 24.5384C361.273 24.7912 361.729 24.9176 362.241 24.9176C362.715 24.9176 363.128 24.821 363.481 24.6278C363.836 24.4347 364.11 24.1619 364.303 23.8097C364.499 23.4545 364.597 23.0369 364.597 22.5568L364.938 22.6207H362.441V21.5341H365.871V22.527C365.871 23.2599 365.715 23.8963 365.403 24.4361C365.093 24.973 364.664 25.3878 364.116 25.6804C363.57 25.973 362.945 26.1193 362.241 26.1193C361.451 26.1193 360.758 25.9375 360.161 25.5739C359.567 25.2102 359.104 24.6946 358.772 24.027C358.439 23.3565 358.273 22.5611 358.273 21.6406C358.273 20.9446 358.37 20.3196 358.563 19.7656C358.756 19.2116 359.028 18.7415 359.377 18.3551C359.729 17.9659 360.143 17.669 360.617 17.4645C361.094 17.2571 361.616 17.1534 362.181 17.1534C362.653 17.1534 363.091 17.223 363.498 17.3622C363.907 17.5014 364.27 17.6989 364.589 17.9545C364.91 18.2102 365.175 18.5142 365.385 18.8665C365.596 19.2159 365.738 19.6037 365.812 20.0298H364.461Z" fill="white"/>
<path d="M96.375 53.1676V33.1818H182.433V53.1676H151.56V135H127.298V53.1676H96.375Z" fill="white"/>
<path d="M300.706 135V33.1818H342.766C350.389 33.1818 356.968 34.6733 362.503 37.6562C368.071 40.6061 372.363 44.7325 375.379 50.0355C378.395 55.3054 379.903 61.437 379.903 68.4304C379.903 75.4569 378.362 81.6051 375.28 86.875C372.231 92.1117 367.872 96.1719 362.205 99.0554C356.537 101.939 349.809 103.381 342.02 103.381H316.068V83.9915H337.446C341.158 83.9915 344.257 83.3452 346.743 82.0526C349.262 80.7599 351.168 78.9536 352.46 76.6335C353.753 74.2803 354.399 71.5459 354.399 68.4304C354.399 65.2817 353.753 62.5639 352.46 60.277C351.168 57.9569 349.262 56.1671 346.743 54.9077C344.224 53.6482 341.125 53.0185 337.446 53.0185H325.315V135H300.706Z" fill="white"/>
</svg>
