<svg width="33" height="29" viewBox="0 0 33 29" fill="none" xmlns="http://www.w3.org/2000/svg">
<g filter="url(#filter0_d_2101_6462)">
<path d="M29.1875 2C29.6682 2 30.1288 2.18855 30.4688 2.52344C30.8087 2.85832 31 3.31254 31 3.78613V7.35742C30.9999 7.83092 30.8086 8.2853 30.4688 8.62012C30.1289 8.9548 29.668 9.14258 29.1875 9.14258V22.5361C29.1874 23.72 28.71 24.8553 27.8604 25.6924C27.0106 26.5296 25.858 27 24.6562 27H8.34375C7.14199 27 5.98942 26.5296 5.13965 25.6924C4.29 24.8553 3.81261 23.72 3.8125 22.5361V9.14258C3.33195 9.14258 2.87113 8.9548 2.53125 8.62012C2.19141 8.2853 2.00007 7.83092 2 7.35742V3.78613C2 3.31254 2.19135 2.85832 2.53125 2.52344C2.87116 2.18855 3.3318 2 3.8125 2H29.1875ZM5.625 22.5361C5.62511 23.2463 5.91128 23.9275 6.4209 24.4297C6.93076 24.932 7.62269 25.2139 8.34375 25.2139H24.6562C25.3773 25.2139 26.0692 24.932 26.5791 24.4297C27.0887 23.9275 27.3749 23.2463 27.375 22.5361V9.14258H5.625V22.5361ZM21.0312 12.7139C21.2715 12.7139 21.5019 12.8083 21.6719 12.9756C21.8418 13.143 21.9375 13.3706 21.9375 13.6074C21.9374 13.8441 21.8418 14.0709 21.6719 14.2383C21.5019 14.4057 21.2716 14.5 21.0312 14.5H11.9688C11.7284 14.5 11.4981 14.4057 11.3281 14.2383C11.1582 14.0709 11.0626 13.8441 11.0625 13.6074C11.0625 13.3706 11.1582 13.143 11.3281 12.9756C11.4981 12.8083 11.7285 12.7139 11.9688 12.7139H21.0312ZM3.8125 7.35742H29.1875V3.78613H3.8125V7.35742Z" fill="#C62742"/>
</g>
<defs>
<filter id="filter0_d_2101_6462" x="0" y="0" width="33" height="29" filterUnits="userSpaceOnUse" color-interpolation-filters="sRGB">
<feFlood flood-opacity="0" result="BackgroundImageFix"/>
<feColorMatrix in="SourceAlpha" type="matrix" values="0 0 0 0 0 0 0 0 0 0 0 0 0 0 0 0 0 0 127 0" result="hardAlpha"/>
<feOffset/>
<feGaussianBlur stdDeviation="1"/>
<feComposite in2="hardAlpha" operator="out"/>
<feColorMatrix type="matrix" values="0 0 0 0 0 0 0 0 0 0 0 0 0 0 0 0 0 0 0.15 0"/>
<feBlend mode="normal" in2="BackgroundImageFix" result="effect1_dropShadow_2101_6462"/>
<feBlend mode="normal" in="SourceGraphic" in2="effect1_dropShadow_2101_6462" result="shape"/>
</filter>
</defs>
</svg>
